<?xml version="1.0" encoding="UTF-8"?>
<!DOCTYPE svg PUBLIC "-//W3C//DTD SVG 1.1//EN" "http://www.w3.org/Graphics/SVG/1.1/DTD/svg11.dtd">
<svg xmlns="http://www.w3.org/2000/svg" version="1.1" width="159px" height="83px" style="shape-rendering:geometricPrecision; text-rendering:geometricPrecision; image-rendering:optimizeQuality; fill-rule:evenodd; clip-rule:evenodd" xmlns:xlink="http://www.w3.org/1999/xlink">
<g><path style="opacity:0.859" fill="#2baae1" d="M 20.5,-0.5 C 34.1667,-0.5 47.8333,-0.5 61.5,-0.5C 61.5,6.16667 61.5,12.8333 61.5,19.5C 59.5853,19.7845 57.9187,19.4511 56.5,18.5C 56.5,13.5 56.5,8.5 56.5,3.5C 45.8333,3.5 35.1667,3.5 24.5,3.5C 24.5,5.5 24.5,7.5 24.5,9.5C 23.4324,10.4345 22.099,10.7678 20.5,10.5C 20.3048,6.62225 20.3048,2.95558 20.5,-0.5 Z"/></g>
<g><path style="opacity:0.574" fill="#fefffe" d="M 131.5,8.5 C 134.696,8.96423 134.696,10.4642 131.5,13C 137.972,13.4748 140.305,16.9748 138.5,23.5C 133.489,23.6659 128.489,23.4993 123.5,23C 122.874,22.2496 122.374,21.4162 122,20.5C 121.501,16.8484 121.335,13.1817 121.5,9.5C 122.833,9.5 124.167,9.5 125.5,9.5C 125.5,13.1667 125.5,16.8333 125.5,20.5C 128.833,20.5 132.167,20.5 135.5,20.5C 135.67,19.1779 135.337,18.0113 134.5,17C 131.854,16.5026 129.187,16.3359 126.5,16.5C 126.536,12.8001 128.203,10.1335 131.5,8.5 Z"/></g>
<g><path style="opacity:0.685" fill="#fefefe" d="M 24.5,9.5 C 28.5138,9.33449 32.5138,9.50115 36.5,10C 39.7974,12.2954 42.7974,14.962 45.5,18C 49.1516,18.4986 52.8183,18.6653 56.5,18.5C 57.9187,19.4511 59.5853,19.7845 61.5,19.5C 61.5,20.5 61.5,21.5 61.5,22.5C 60.209,22.2627 59.209,22.596 58.5,23.5C 53.4889,23.6659 48.4889,23.4993 43.5,23C 40.2265,19.051 36.3931,15.8843 32,13.5C 28.2136,14.7948 24.3803,14.7948 20.5,13.5C 19.2086,12.4728 19.2086,11.4728 20.5,10.5C 22.099,10.7678 23.4324,10.4345 24.5,9.5 Z"/></g>
<g><path style="opacity:0.479" fill="#fefffe" d="M 70.5,9.5 C 72.3307,10.0522 73.9974,10.0522 75.5,9.5C 78.1667,10.8333 78.1667,12.1667 75.5,13.5C 73.9974,12.9478 72.3307,12.9478 70.5,13.5C 70.5,12.1667 70.5,10.8333 70.5,9.5 Z"/></g>
<g><path style="opacity:0.411" fill="#fefffe" d="M 109.5,13.5 C 107.5,13.5 105.5,13.5 103.5,13.5C 103.5,12.8333 103.167,12.5 102.5,12.5C 102.414,11.5041 102.748,10.6708 103.5,10C 105.473,9.50454 107.473,9.33788 109.5,9.5C 109.5,10.8333 109.5,12.1667 109.5,13.5 Z"/></g>
<g><path style="opacity:0.555" fill="#fefffe" d="M 78.5,12.5 C 79.5,12.5 80.5,12.5 81.5,12.5C 81.5,15.1667 81.5,17.8333 81.5,20.5C 82.5,20.5 83.5,20.5 84.5,20.5C 84.5,18.5 84.5,16.5 84.5,14.5C 85.5,14.5 86.5,14.5 87.5,14.5C 88.1667,22.5 88.8333,22.5 89.5,14.5C 90.8221,14.33 91.9887,14.6634 93,15.5C 93.3333,17.1667 93.6667,18.8333 94,20.5C 94.3333,18.1667 94.6667,15.8333 95,13.5C 95.7175,12.5494 96.5509,12.3828 97.5,13C 98.4558,16.3936 98.7892,19.8936 98.5,23.5C 88.3496,23.2079 78.3496,23.0413 68.5,23C 66.6863,20.5185 66.0196,17.6852 66.5,14.5C 70.0681,14.7593 71.4015,16.7593 70.5,20.5C 72.8333,20.5 75.1667,20.5 77.5,20.5C 77.2786,17.7212 77.612,15.0545 78.5,12.5 Z"/></g>
<g><path style="opacity:0.623" fill="#fefffe" d="M 102.5,12.5 C 103.167,12.5 103.5,12.8333 103.5,13.5C 103.5,15.8333 103.5,18.1667 103.5,20.5C 105.5,20.5 107.5,20.5 109.5,20.5C 109.5,18.1667 109.5,15.8333 109.5,13.5C 110.15,13.1961 110.817,12.8627 111.5,12.5C 112.489,16.1073 112.823,19.774 112.5,23.5C 109.428,23.1826 106.428,23.5159 103.5,24.5C 102.061,26.5531 100.061,27.5531 97.5,27.5C 97.4609,25.6412 98.2942,24.3079 100,23.5C 99.9064,19.3673 100.74,15.7006 102.5,12.5 Z M 103.5,13.5 C 105.5,13.5 107.5,13.5 109.5,13.5C 109.5,15.8333 109.5,18.1667 109.5,20.5C 107.5,20.5 105.5,20.5 103.5,20.5C 103.5,18.1667 103.5,15.8333 103.5,13.5 Z"/></g>
<g><path style="opacity:0.579" fill="#fefffe" d="M 117.5,12.5 C 118.5,12.5 119.5,12.5 120.5,12.5C 120.666,16.8461 120.499,21.1794 120,25.5C 118.069,28.1047 116.236,28.1047 114.5,25.5C 117.168,21.6958 118.168,17.3625 117.5,12.5 Z"/></g>
<g><path style="opacity:0.877" fill="#26aae0" d="M 58.5,23.5 C 59.209,22.596 60.209,22.2627 61.5,22.5C 61.6602,24.1992 61.4935,25.8659 61,27.5C 54.2128,34.2872 47.5462,40.9538 41,47.5C 34.0428,41.5446 27.3761,35.2112 21,28.5C 20.5012,24.5138 20.3345,20.5138 20.5,16.5C 21.8333,16.5 23.1667,16.5 24.5,16.5C 24.335,19.8499 24.5017,23.1832 25,26.5C 30.0147,31.6818 35.1814,36.6818 40.5,41.5C 46.8543,35.8123 52.8543,29.8123 58.5,23.5 Z"/></g>
<g><path style="opacity:0.824" fill="#726cfa" d="M 26.5,18.5 C 31.1464,22.8115 35.8131,27.1449 40.5,31.5C 43.426,28.088 47.0927,26.588 51.5,27C 48.3526,31.3144 44.686,35.1477 40.5,38.5C 36.2095,33.7081 31.7095,29.0414 27,24.5C 26.5045,22.5273 26.3379,20.5273 26.5,18.5 Z"/></g>
<g><path style="opacity:0.588" fill="#fefffe" d="M 71.5,28.5 C 73.9892,28.2978 76.3225,28.7978 78.5,30C 79.3366,31.0113 79.67,32.1779 79.5,33.5C 77.4176,33.528 75.5843,32.8613 74,31.5C 69.3333,34.5 69.3333,37.5 74,40.5C 75.5548,38.8542 77.2215,38.5209 79,39.5C 79.2326,37.2199 80.066,35.2199 81.5,33.5C 83.9302,32.7498 86.2635,32.4165 88.5,32.5C 89.8333,36.1667 89.8333,39.8333 88.5,43.5C 86.5741,42.9394 84.5741,42.7727 82.5,43C 81.6667,42.1667 80.8333,41.3333 80,40.5C 73.0575,45.4458 68.5575,43.7791 66.5,35.5C 67.0141,32.3227 68.6807,29.9894 71.5,28.5 Z M 83.5,35.5 C 86.9563,36.5362 87.2896,38.2029 84.5,40.5C 82.2957,39.218 81.9624,37.5514 83.5,35.5 Z"/></g>
<g><path style="opacity:0.542" fill="#fefffe" d="M 123.5,40.5 C 121.992,43.2502 119.659,44.0836 116.5,43C 114.879,40.834 114.045,38.334 114,35.5C 113.333,36.8333 112.667,36.8333 112,35.5C 110.625,37.9368 110.125,40.6035 110.5,43.5C 109.5,43.5 108.5,43.5 107.5,43.5C 107.211,39.8936 107.544,36.3936 108.5,33C 107.552,32.5172 106.552,32.3505 105.5,32.5C 105.5,36.1667 105.5,39.8333 105.5,43.5C 104.167,43.5 102.833,43.5 101.5,43.5C 101.5,39.8333 101.5,36.1667 101.5,32.5C 100.167,32.5 98.8333,32.5 97.5,32.5C 97.5,31.1667 97.5,29.8333 97.5,28.5C 101.5,28.5 105.5,28.5 109.5,28.5C 109.34,30.1992 109.506,31.8659 110,33.5C 112.381,32.565 114.881,32.2317 117.5,32.5C 117.337,34.8568 117.503,37.1902 118,39.5C 118.414,39.9574 118.914,40.2907 119.5,40.5C 120.48,37.9135 120.813,35.2469 120.5,32.5C 122.124,32.3601 123.29,33.0267 124,34.5C 125.808,32.6041 127.975,32.1041 130.5,33C 131.833,34.3333 131.833,35.6667 130.5,37C 131,37.5 131.5,38 132,38.5C 132.497,35.854 132.664,33.1873 132.5,30.5C 133.5,30.5 134.5,30.5 135.5,30.5C 135.119,32.9418 135.786,33.6085 137.5,32.5C 138.833,33.8333 138.833,35.1667 137.5,36.5C 136.914,36.2907 136.414,35.9574 136,35.5C 135.333,37.1667 135.333,38.8333 136,40.5C 137.011,39.6634 138.178,39.33 139.5,39.5C 137.813,44.3252 135.313,44.6585 132,40.5C 130.18,43.2028 127.68,44.0361 124.5,43C 123.748,42.3292 123.414,41.4959 123.5,40.5 Z M 123.5,40.5 C 123.202,37.6644 123.869,37.1644 125.5,39C 124.956,39.7172 124.289,40.2172 123.5,40.5 Z"/></g>
<g><path style="opacity:0.528" fill="#fefffe" d="M 97.5,32.5 C 97.762,33.9778 97.4287,35.3112 96.5,36.5C 95.5745,35.3595 94.7412,35.3595 94,36.5C 93.5034,38.8098 93.3367,41.1432 93.5,43.5C 92.5,43.5 91.5,43.5 90.5,43.5C 90.1774,39.774 90.5108,36.1073 91.5,32.5C 93.326,32.9202 95.326,32.9202 97.5,32.5 Z"/></g>
<g><path style="opacity:0.521" fill="#fefffe" d="M 158.5,59.5 C 158.5,61.1667 158.5,62.8333 158.5,64.5C 153.916,65.2773 149.25,65.7773 144.5,66C 143.975,66.6924 143.308,67.1924 142.5,67.5C 136.713,65.7683 130.713,64.935 124.5,65C 123.234,64.6905 122.067,64.1905 121,63.5C 120.57,60.8078 120.737,58.1411 121.5,55.5C 123.167,55.5 124.833,55.5 126.5,55.5C 126.5,57.8333 126.5,60.1667 126.5,62.5C 130.514,62.6655 134.514,62.4988 138.5,62C 136.833,61.6667 135.167,61.3333 133.5,61C 134.68,59.1039 136.18,57.6039 138,56.5C 139.727,56.6465 139.894,57.3131 138.5,58.5C 140.297,60.1311 141.464,62.1311 142,64.5C 142.494,62.8659 142.66,61.1992 142.5,59.5C 143.5,59.5 144.5,59.5 145.5,59.5C 145.5,60.5 145.5,61.5 145.5,62.5C 146.833,62.5 148.167,62.5 149.5,62.5C 149.5,61.5 149.5,60.5 149.5,59.5C 150.5,59.5 151.5,59.5 152.5,59.5C 152.383,57.5165 153.05,55.8498 154.5,54.5C 155.489,56.5862 156.822,58.2529 158.5,59.5 Z"/></g>
<g><path style="opacity:0.5" fill="#fefffe" d="M 43.5,55.5 C 45.1667,55.5 46.8333,55.5 48.5,55.5C 48.5,57.8333 48.5,60.1667 48.5,62.5C 51.1667,62.5 53.8333,62.5 56.5,62.5C 56.238,61.0222 56.5713,59.6888 57.5,58.5C 59.1112,59.3202 59.7778,60.6536 59.5,62.5C 61.8568,62.6633 64.1902,62.4966 66.5,62C 60.6504,61.8733 60.317,60.04 65.5,56.5C 66.7112,57.2739 66.7112,58.1072 65.5,59C 68.1019,59.935 69.6019,61.7683 70,64.5C 70.4935,62.8659 70.6602,61.1992 70.5,59.5C 71.5,59.5 72.5,59.5 73.5,59.5C 73.5,60.5 73.5,61.5 73.5,62.5C 75.6984,61.9856 77.6984,60.9856 79.5,59.5C 81.1965,60.3636 82.3632,61.6969 83,63.5C 83.3333,61.5 83.6667,59.5 84,57.5C 85.1169,57.3349 86.2836,57.0016 87.5,56.5C 88.8333,59.5 88.8333,62.5 87.5,65.5C 83.4955,66.1697 79.3288,66.1697 75,65.5C 73.1348,65.7055 71.4681,66.3722 70,67.5C 66.3739,65.5761 62.5405,65.0761 58.5,66C 59.6039,67.1313 59.2705,67.9646 57.5,68.5C 56.6143,67.675 56.281,66.675 56.5,65.5C 52.0638,65.7899 47.7305,65.2899 43.5,64C 42.477,61.2258 42.477,58.3925 43.5,55.5 Z M 44.5,60.5 C 47.0009,60.5109 47.1676,61.1776 45,62.5C 44.5357,61.9056 44.369,61.2389 44.5,60.5 Z"/></g>
<g><path style="opacity:0.486" fill="#fefffe" d="M 92.5,55.5 C 93.8333,55.5 95.1667,55.5 96.5,55.5C 96.9926,57.8056 97.3259,60.139 97.5,62.5C 100.833,62.5 104.167,62.5 107.5,62.5C 107.349,59.2624 108.682,56.9291 111.5,55.5C 112.478,55.9767 113.311,56.6433 114,57.5C 114.388,56.572 115.055,55.9054 116,55.5C 118.648,58.0512 119.148,61.0512 117.5,64.5C 108.79,65.8765 100.123,65.7098 91.5,64C 90.9415,63.2753 90.6082,62.4419 90.5,61.5C 91.6511,59.6746 92.3178,57.6746 92.5,55.5 Z M 113.5,59.5 C 114.586,59.62 115.253,60.2867 115.5,61.5C 115.167,62.1667 114.833,62.8333 114.5,63.5C 114.595,62.3088 114.262,60.9755 113.5,59.5 Z"/></g>
<g><path style="opacity:0.489" fill="#fefffe" d="M -0.5,56.5 C 1.16667,56.5 2.83333,56.5 4.5,56.5C 5.42367,59.5533 5.42367,62.5533 4.5,65.5C 2.70848,65.634 1.04181,65.3007 -0.5,64.5C -0.5,62.8333 -0.5,61.1667 -0.5,59.5C 0.833333,59.1667 0.833333,58.8333 -0.5,58.5C -0.5,57.8333 -0.5,57.1667 -0.5,56.5 Z"/></g>
<g><path style="opacity:0.481" fill="#fefffe" d="M 4.5,65.5 C 5.85136,62.1658 7.85136,59.1658 10.5,56.5C 11.4656,58.396 11.7989,60.396 11.5,62.5C 13.8568,62.6633 16.1902,62.4966 18.5,62C 21.9533,57.2724 24.7867,57.7724 27,63.5C 27.8699,62.8921 28.3699,62.0588 28.5,61C 27.2927,59.6998 26.6261,58.1998 26.5,56.5C 27.8333,56.5 29.1667,56.5 30.5,56.5C 30.7706,64.1962 31.7706,64.3629 33.5,57C 33.8333,56.8333 34.1667,56.6667 34.5,56.5C 35.8333,64.5 37.1667,64.5 38.5,56.5C 40.7687,58.7991 41.102,61.4658 39.5,64.5C 34.2079,65.4948 28.8746,65.8282 23.5,65.5C 23.506,68.5476 22.506,69.0476 20.5,67C 20.8333,66.6667 21.1667,66.3333 21.5,66C 17.0182,66.0631 12.8515,65.2297 9,63.5C 8.34666,67.544 6.84666,68.2106 4.5,65.5 Z"/></g>
<g><path style="opacity:0.479" fill="#fefffe" d="M 2.5,71.5 C 5.54679,70.8554 7.71345,71.8554 9,74.5C 12.4098,74.7169 15.9098,74.3835 19.5,73.5C 18.551,75.7373 17.8844,78.0706 17.5,80.5C 15.4086,80.3184 13.4086,80.6518 11.5,81.5C 8.81286,80.0198 5.81286,79.5198 2.5,80C 0.0467794,77.2507 0.0467794,74.4173 2.5,71.5 Z M 3.5,74.5 C 10.1667,75.8333 10.1667,77.1667 3.5,78.5C 3.5,77.1667 3.5,75.8333 3.5,74.5 Z"/></g>
<g><path style="opacity:0.453" fill="#fefffe" d="M 21.5,71.5 C 25.8672,71.9867 30.2005,72.6533 34.5,73.5C 34.8333,80.1667 35.1667,80.1667 35.5,73.5C 38.1089,73.9402 40.7756,74.2735 43.5,74.5C 45.4109,71.8202 47.0776,71.9869 48.5,75C 47.6569,76.7866 47.4902,78.6199 48,80.5C 46.4126,81.727 45.0793,81.3937 44,79.5C 43.3109,80.3567 42.4776,81.0233 41.5,81.5C 38.557,80.7565 35.557,80.2565 32.5,80C 31.1177,75.2945 30.4511,75.4612 30.5,80.5C 29.5,80.5 28.5,80.5 27.5,80.5C 27.1667,72.5 26.8333,72.5 26.5,80.5C 25.5,80.5 24.5,80.5 23.5,80.5C 23.4422,77.3356 22.7755,74.3356 21.5,71.5 Z"/></g>
<g><path style="opacity:0.497" fill="#fefffe" d="M 96.5,82.5 C 95.5,82.5 94.5,82.5 93.5,82.5C 93.1788,80.9519 92.1788,80.2852 90.5,80.5C 90.1667,75.1667 89.8333,75.1667 89.5,80.5C 87.4086,80.3184 85.4086,80.6518 83.5,81.5C 80.7092,78.9814 78.3759,79.3147 76.5,82.5C 75.5,82.5 74.5,82.5 73.5,82.5C 72.0821,80.6921 70.0821,80.0254 67.5,80.5C 67.4427,75.3183 66.776,75.3183 65.5,80.5C 63.6017,79.2655 61.935,79.5989 60.5,81.5C 59.5,80.8333 58.5,80.1667 57.5,79.5C 55.1608,80.724 52.8275,80.724 50.5,79.5C 48.1303,74.0592 49.7969,71.5592 55.5,72C 56.6667,72.5 57.5,73.3333 58,74.5C 60.2672,73.0652 62.2672,73.3985 64,75.5C 64.5194,74.4844 65.3527,73.8178 66.5,73.5C 69.8098,73.7066 73.1432,73.7066 76.5,73.5C 77.9945,73.7092 79.1612,74.3759 80,75.5C 80.804,74.1955 81.9707,73.5288 83.5,73.5C 87.3392,73.758 91.3392,73.758 95.5,73.5C 95.3505,74.552 95.5172,75.552 96,76.5C 96.9057,74.388 98.4057,73.5547 100.5,74C 99.2975,76.9046 97.9641,79.7379 96.5,82.5 Z M 52.5,74.5 C 58.2618,75.3679 58.5951,76.7013 53.5,78.5C 51.3576,77.5629 51.0243,76.2296 52.5,74.5 Z M 59.5,76.5 C 61.337,76.6395 61.6704,77.3061 60.5,78.5C 59.7025,78.0431 59.3691,77.3764 59.5,76.5 Z M 76.5,76.5 C 78.337,76.6395 78.6704,77.3061 77.5,78.5C 76.7025,78.0431 76.3691,77.3764 76.5,76.5 Z"/></g>
<g><path style="opacity:0.473" fill="#fefffe" d="M 103.5,71.5 C 104.675,71.281 105.675,71.6143 106.5,72.5C 105.494,73.3957 105.494,74.0623 106.5,74.5C 110.182,75.7728 113.849,75.7728 117.5,74.5C 115.914,76.1727 115.247,78.1727 115.5,80.5C 114.178,80.67 113.011,80.3366 112,79.5C 109.614,82.1585 107.614,81.8251 106,78.5C 105.29,79.9733 104.124,80.6399 102.5,80.5C 101.013,77.2455 101.346,74.2455 103.5,71.5 Z M 108.5,76.5 C 111.001,76.5109 111.168,77.1776 109,78.5C 108.536,77.9056 108.369,77.2389 108.5,76.5 Z"/></g>
<g><path style="opacity:0.48" fill="#fefffe" d="M 158.5,73.5 C 158.5,76.1667 158.5,78.8333 158.5,81.5C 157.833,81.5 157.5,81.8333 157.5,82.5C 155.833,82.5 154.167,82.5 152.5,82.5C 153.677,80.8974 153.511,79.564 152,78.5C 151.692,79.3081 151.192,79.9747 150.5,80.5C 149.224,75.3183 148.557,75.3183 148.5,80.5C 145.091,80.2493 141.758,80.5827 138.5,81.5C 137.201,80.91 136.368,79.91 136,78.5C 132.541,82.6206 130.207,81.9539 129,76.5C 128.51,77.7932 128.343,79.1266 128.5,80.5C 127.5,80.5 126.5,80.5 125.5,80.5C 125.167,72.5 124.833,72.5 124.5,80.5C 123.5,80.5 122.5,80.5 121.5,80.5C 121.442,77.3356 120.776,74.3356 119.5,71.5C 123.621,71.4396 127.454,72.4396 131,74.5C 132.938,73.1398 134.604,73.4732 136,75.5C 140.285,70.7822 145.119,70.2822 150.5,74C 151.5,77.3333 152.5,77.3333 153.5,74C 155.134,73.5065 156.801,73.3398 158.5,73.5 Z M 138.5,76.5 C 141.001,76.5109 141.168,77.1776 139,78.5C 138.536,77.9056 138.369,77.2389 138.5,76.5 Z M 154.5,76.5 C 156.337,76.6395 156.67,77.3061 155.5,78.5C 154.702,78.0431 154.369,77.3764 154.5,76.5 Z"/></g>
</svg>
