<?xml version="1.0" encoding="UTF-8"?>
<!DOCTYPE svg PUBLIC "-//W3C//DTD SVG 1.1//EN" "http://www.w3.org/Graphics/SVG/1.1/DTD/svg11.dtd">
<svg xmlns="http://www.w3.org/2000/svg" version="1.1" width="256px" height="148px" style="shape-rendering:geometricPrecision; text-rendering:geometricPrecision; image-rendering:optimizeQuality; fill-rule:evenodd; clip-rule:evenodd" xmlns:xlink="http://www.w3.org/1999/xlink">
<g><path style="opacity:1" fill="#fcfcfd" d="M -0.5,-0.5 C 84.8333,-0.5 170.167,-0.5 255.5,-0.5C 255.5,48.8333 255.5,98.1667 255.5,147.5C 170.167,147.5 84.8333,147.5 -0.5,147.5C -0.5,98.1667 -0.5,48.8333 -0.5,-0.5 Z"/></g>
<g><path style="opacity:1" fill="#5b5859" d="M 95.5,56.5 C 97.8333,56.5 100.167,56.5 102.5,56.5C 102.5,57.5 102.5,58.5 102.5,59.5C 100.473,59.6621 98.4727,59.4955 96.5,59C 95.7476,58.3292 95.4142,57.4959 95.5,56.5 Z"/></g>
<g><path style="opacity:1" fill="#a7c7e4" d="M 183.5,65.5 C 183.5,67.5 183.5,69.5 183.5,71.5C 180.5,71.5 177.5,71.5 174.5,71.5C 175.103,66.3814 174.436,61.7147 172.5,57.5C 172.811,56.5222 173.478,55.8555 174.5,55.5C 175.494,60.456 175.827,65.456 175.5,70.5C 177.833,70.5 180.167,70.5 182.5,70.5C 182.216,68.5853 182.549,66.9187 183.5,65.5 Z"/></g>
<g><path style="opacity:1" fill="#525050" d="M 139.5,59.5 C 140.995,59.4148 141.995,60.0815 142.5,61.5C 141.167,62.8333 139.833,62.8333 138.5,61.5C 138.863,60.8165 139.196,60.1499 139.5,59.5 Z"/></g>
<g><path style="opacity:1" fill="#4d4a4a" d="M 59.5,60.5 C 60.8333,60.5 62.1667,60.5 63.5,60.5C 63.5,61.5 63.5,62.5 63.5,63.5C 62.1667,63.5 60.8333,63.5 59.5,63.5C 59.5,62.5 59.5,61.5 59.5,60.5 Z"/></g>
<g><path style="opacity:1" fill="#363132" d="M 81.5,59.5 C 82.2679,60.2625 82.7679,61.2625 83,62.5C 83.4986,66.1516 83.6653,69.8183 83.5,73.5C 82.8826,73.6107 82.3826,73.944 82,74.5C 81.8171,71.6353 81.3171,68.9686 80.5,66.5C 80.1984,63.9407 80.5318,61.6074 81.5,59.5 Z"/></g>
<g><path style="opacity:1" fill="#666565" d="M 65.5,79.5 C 65.0623,78.4937 64.3957,78.4937 63.5,79.5C 64.8333,77.1667 64.8333,74.8333 63.5,72.5C 67.2736,75.262 71.6069,76.262 76.5,75.5C 76.666,70.1563 76.4994,64.8229 76,59.5C 75.501,63.8206 75.3343,68.1539 75.5,72.5C 72.2869,72.81 69.2869,72.4767 66.5,71.5C 69.1667,71.5 71.8333,71.5 74.5,71.5C 74.5,67.1667 74.5,62.8333 74.5,58.5C 75.5,58.5 76.5,58.5 77.5,58.5C 77.5,64.5 77.5,70.5 77.5,76.5C 73.8333,76.5 70.1667,76.5 66.5,76.5C 66.7373,77.791 66.404,78.791 65.5,79.5 Z"/></g>
<g><path style="opacity:1" fill="#5c5959" d="M 17.5,64.5 C 19.8333,64.5 22.1667,64.5 24.5,64.5C 24.5,65.5 24.5,66.5 24.5,67.5C 22.4159,66.7517 20.4159,66.7517 18.5,67.5C 17.6143,66.675 17.281,65.675 17.5,64.5 Z"/></g>
<g><path style="opacity:1" fill="#1c73bd" d="M 172.5,57.5 C 174.436,61.7147 175.103,66.3814 174.5,71.5C 177.5,71.5 180.5,71.5 183.5,71.5C 183.5,69.5 183.5,67.5 183.5,65.5C 184.5,64.1667 185.5,64.1667 186.5,65.5C 185.407,70.2393 187.24,72.2393 192,71.5C 193.5,71.1667 195,70.8333 196.5,70.5C 195.691,68.9291 195.357,67.2624 195.5,65.5C 196.5,64.1667 197.5,64.1667 198.5,65.5C 198.5,68.5 198.5,71.5 198.5,74.5C 190.316,74.1743 182.316,74.5076 174.5,75.5C 173.833,76.8333 173.167,78.1667 172.5,79.5C 169.236,80.3242 165.902,80.6576 162.5,80.5C 161.597,77.6085 161.264,74.6085 161.5,71.5C 162.638,77.8717 166.138,79.2051 172,75.5C 171.97,69.8516 171.803,64.1849 171.5,58.5C 171.5,57.8333 171.833,57.5 172.5,57.5 Z"/></g>
<g><path style="opacity:1" fill="#a8a7a7" d="M 81.5,59.5 C 81.56,58.9569 81.8933,58.6236 82.5,58.5C 83.2508,59.376 83.7508,60.376 84,61.5C 84.8119,65.6888 84.6453,69.6888 83.5,73.5C 83.6653,69.8183 83.4986,66.1516 83,62.5C 82.7679,61.2625 82.2679,60.2625 81.5,59.5 Z"/></g>
<g><path style="opacity:1" fill="#312c2d" d="M 96.5,69.5 C 96.5,69.8333 96.5,70.1667 96.5,70.5C 97.1667,71.1667 97.8333,71.8333 98.5,72.5C 96.8333,73.8333 95.1667,73.8333 93.5,72.5C 93.1457,69.5065 94.1457,68.5065 96.5,69.5 Z"/></g>
<g><path style="opacity:1" fill="#787676" d="M 115.5,66.5 C 111.949,67.1855 111.783,68.1855 115,69.5C 115.483,70.448 115.649,71.448 115.5,72.5C 113.708,72.634 112.042,72.3007 110.5,71.5C 110.491,69.6916 110.991,68.0249 112,66.5C 113.292,65.2089 114.458,65.2089 115.5,66.5 Z"/></g>
<g><path style="opacity:1" fill="#b9d4ea" d="M 186.5,65.5 C 188.213,66.6354 188.88,68.302 188.5,70.5C 190.5,70.5 192.5,70.5 194.5,70.5C 194.216,68.5853 194.549,66.9187 195.5,65.5C 195.357,67.2624 195.691,68.9291 196.5,70.5C 195,70.8333 193.5,71.1667 192,71.5C 187.24,72.2393 185.407,70.2393 186.5,65.5 Z"/></g>
<g><path style="opacity:1" fill="#ff4755" d="M 208.5,65.5 C 207.884,66.7978 207.884,67.7978 208.5,68.5C 208.5,69.5 208.5,70.5 208.5,71.5C 207.957,71.56 207.624,71.8933 207.5,72.5C 209.287,73.316 210.954,74.316 212.5,75.5C 212.145,76.5223 211.478,77.189 210.5,77.5C 208.147,75.7756 206.48,73.4423 205.5,70.5C 205.595,68.1309 206.595,66.4642 208.5,65.5 Z"/></g>
<g><path style="opacity:1" fill="#ff97a0" d="M 208.5,68.5 C 212.31,69.7542 212.31,70.7542 208.5,71.5C 208.5,70.5 208.5,69.5 208.5,68.5 Z"/></g>
<g><path style="opacity:1" fill="#74add8" d="M 222.5,65.5 C 222.5,66.5 222.5,67.5 222.5,68.5C 223.833,68.5 225.167,68.5 226.5,68.5C 226.5,69.5 226.5,70.5 226.5,71.5C 224.61,71.7035 223.11,71.0368 222,69.5C 221.617,70.056 221.117,70.3893 220.5,70.5C 220.796,68.597 221.463,66.9303 222.5,65.5 Z"/></g>
<g><path style="opacity:1" fill="#1f73bc" d="M 214.5,75.5 C 214.5,74.1667 214.5,72.8333 214.5,71.5C 216.565,71.4828 218.565,71.1495 220.5,70.5C 221.117,70.3893 221.617,70.056 222,69.5C 223.11,71.0368 224.61,71.7035 226.5,71.5C 226.5,70.5 226.5,69.5 226.5,68.5C 225.167,68.5 223.833,68.5 222.5,68.5C 222.5,67.5 222.5,66.5 222.5,65.5C 224.339,64.2475 226.172,64.2475 228,65.5C 228.826,68.7928 229.326,72.1262 229.5,75.5C 226.102,75.8583 222.935,75.1916 220,73.5C 218.433,74.8561 216.6,75.5228 214.5,75.5 Z"/></g>
<g><path style="opacity:1" fill="#312c2d" d="M 44.5,71.5 C 47.0241,72.8003 49.6908,72.8003 52.5,71.5C 52.3764,70.8933 52.0431,70.56 51.5,70.5C 51.5,69.1667 51.5,67.8333 51.5,66.5C 52.5,66.5 53.5,66.5 54.5,66.5C 55.1587,69.4552 55.4921,72.4552 55.5,75.5C 51.0293,74.9106 47.0293,75.5772 43.5,77.5C 41.6409,83.1952 37.9743,84.8619 32.5,82.5C 33.8021,80.9724 35.4687,79.9724 37.5,79.5C 42.8936,77.3639 42.727,75.6972 37,74.5C 36.2716,71.7695 36.4383,69.1029 37.5,66.5C 38.723,65.3861 40.0563,65.2195 41.5,66C 42.6087,67.8761 43.6087,69.7095 44.5,71.5 Z"/></g>
<g><path style="opacity:1" fill="#8c8a8a" d="M 51.5,70.5 C 52.0431,70.56 52.3764,70.8933 52.5,71.5C 49.6908,72.8003 47.0241,72.8003 44.5,71.5C 47.0593,71.8016 49.3926,71.4682 51.5,70.5 Z"/></g>
<g><path style="opacity:1" fill="#636161" d="M 109.5,71.5 C 106.972,72.1657 104.306,72.8324 101.5,73.5C 101.863,74.1835 102.196,74.8501 102.5,75.5C 101.167,74.5 99.8333,73.5 98.5,72.5C 97.8333,71.8333 97.1667,71.1667 96.5,70.5C 97.5,70.5 98.5,70.5 99.5,70.5C 99.5,69.5 99.5,68.5 99.5,67.5C 97.8212,67.2852 96.8212,67.9519 96.5,69.5C 94.1457,68.5065 93.1457,69.5065 93.5,72.5C 92.4017,71.3991 92.235,70.0657 93,68.5C 95.3333,66.5 97.6667,64.5 100,62.5C 101.302,65.3751 102.135,68.3751 102.5,71.5C 104.833,71.5 107.167,71.5 109.5,71.5 Z"/></g>
<g><path style="opacity:1" fill="#c4c4c4" d="M 96.5,70.5 C 96.5,70.1667 96.5,69.8333 96.5,69.5C 96.8212,67.9519 97.8212,67.2852 99.5,67.5C 99.5,68.5 99.5,69.5 99.5,70.5C 98.5,70.5 97.5,70.5 96.5,70.5 Z"/></g>
<g><path style="opacity:1" fill="#b0b0b0" d="M 80.5,66.5 C 81.3171,68.9686 81.8171,71.6353 82,74.5C 82.3826,73.944 82.8826,73.6107 83.5,73.5C 83.1788,75.0481 82.1788,75.7148 80.5,75.5C 80.5,72.5 80.5,69.5 80.5,66.5 Z"/></g>
<g><path style="opacity:1" fill="#1f1c1d" d="M 115.5,66.5 C 117.104,67.287 117.771,68.6203 117.5,70.5C 117.5,71.8333 117.5,73.1667 117.5,74.5C 114.751,74.7261 112.084,74.3928 109.5,73.5C 108.478,73.8555 107.811,74.5222 107.5,75.5C 105.833,75.5 104.167,75.5 102.5,75.5C 102.196,74.8501 101.863,74.1835 101.5,73.5C 104.306,72.8324 106.972,72.1657 109.5,71.5C 109.833,71.5 110.167,71.5 110.5,71.5C 112.042,72.3007 113.708,72.634 115.5,72.5C 115.649,71.448 115.483,70.448 115,69.5C 111.783,68.1855 111.949,67.1855 115.5,66.5 Z"/></g>
<g><path style="opacity:1" fill="#2a2627" d="M 130.5,71.5 C 135.348,72.8137 140.348,72.8137 145.5,71.5C 145.145,70.4777 144.478,69.811 143.5,69.5C 142.118,68.1995 140.452,67.3661 138.5,67C 139.93,65.5596 141.597,65.2263 143.5,66C 146.039,67.7209 148.372,69.5542 150.5,71.5C 151.234,72.7079 151.567,74.0413 151.5,75.5C 144.313,75.1755 137.313,75.5088 130.5,76.5C 127.693,77.6567 125.026,77.6567 122.5,76.5C 122.351,75.448 122.517,74.448 123,73.5C 124.943,74.807 126.777,74.807 128.5,73.5C 128.051,70.7102 128.051,68.0436 128.5,65.5C 130.283,67.0225 130.949,69.0225 130.5,71.5 Z"/></g>
<g><path style="opacity:1" fill="#8e8c8c" d="M 143.5,69.5 C 144.478,69.811 145.145,70.4777 145.5,71.5C 140.348,72.8137 135.348,72.8137 130.5,71.5C 135.294,72.0969 139.627,71.4302 143.5,69.5 Z"/></g>
<g><path style="opacity:1" fill="#c4daed" d="M 171.5,58.5 C 171.803,64.1849 171.97,69.8516 172,75.5C 166.138,79.2051 162.638,77.8717 161.5,71.5C 161.415,70.0047 162.081,69.0047 163.5,68.5C 164.474,70.7427 164.808,73.076 164.5,75.5C 166.5,75.5 168.5,75.5 170.5,75.5C 170.178,69.642 170.511,63.9753 171.5,58.5 Z"/></g>
<g><path style="opacity:1" fill="#605e5e" d="M 14.5,73.5 C 12.9519,73.8212 12.2852,74.8212 12.5,76.5C 11.1054,74.1527 11.2721,71.8194 13,69.5C 13.4101,70.9007 13.9101,72.234 14.5,73.5 Z"/></g>
<g><path style="opacity:1" fill="#211c1d" d="M 63.5,72.5 C 63.686,67.6905 64.686,67.3571 66.5,71.5C 69.2869,72.4767 72.2869,72.81 75.5,72.5C 75.3343,68.1539 75.501,63.8206 76,59.5C 76.4994,64.8229 76.666,70.1563 76.5,75.5C 71.6069,76.262 67.2736,75.262 63.5,72.5 Z"/></g>
<g><path style="opacity:1" fill="#848182" d="M 128.5,73.5 C 126.777,74.807 124.943,74.807 123,73.5C 122.517,74.448 122.351,75.448 122.5,76.5C 121.566,75.4324 121.232,74.099 121.5,72.5C 123.806,72.9926 126.139,73.3259 128.5,73.5 Z"/></g>
<g><path style="opacity:1" fill="#4a4747" d="M 117.5,70.5 C 118.451,71.9187 118.784,73.5853 118.5,75.5C 114.833,75.5 111.167,75.5 107.5,75.5C 107.811,74.5222 108.478,73.8555 109.5,73.5C 112.084,74.3928 114.751,74.7261 117.5,74.5C 117.5,73.1667 117.5,71.8333 117.5,70.5 Z"/></g>
<g><path style="opacity:1" fill="#3f90ca" d="M 198.5,65.5 C 199.479,68.6248 199.813,71.9581 199.5,75.5C 191.167,75.5 182.833,75.5 174.5,75.5C 182.316,74.5076 190.316,74.1743 198.5,74.5C 198.5,71.5 198.5,68.5 198.5,65.5 Z"/></g>
<g><path style="opacity:1" fill="#322c2e" d="M 29.5,69.5 C 29.6633,71.8568 29.4966,74.1902 29,76.5C 28.3292,77.2524 27.4959,77.5858 26.5,77.5C 21.7697,77.7166 17.1031,77.3833 12.5,76.5C 12.2852,74.8212 12.9519,73.8212 14.5,73.5C 18.6344,74.4849 22.9677,74.8182 27.5,74.5C 27.1667,72.5 26.8333,70.5 26.5,68.5C 27.791,68.2627 28.791,68.596 29.5,69.5 Z"/></g>
<g><path style="opacity:1" fill="#9e9e9e" d="M 150.5,71.5 C 152.256,72.5521 152.923,74.2188 152.5,76.5C 145.167,76.5 137.833,76.5 130.5,76.5C 137.313,75.5088 144.313,75.1755 151.5,75.5C 151.567,74.0413 151.234,72.7079 150.5,71.5 Z"/></g>
<g><path style="opacity:1" fill="#736f70" d="M 12.5,76.5 C 17.1031,77.3833 21.7697,77.7166 26.5,77.5C 26.5,77.8333 26.5,78.1667 26.5,78.5C 22.1539,78.6657 17.8206,78.499 13.5,78C 12.944,77.6174 12.6107,77.1174 12.5,76.5 Z"/></g>
<g><path style="opacity:1" fill="#ff95a0" d="M 206.5,79.5 C 204.833,80.1667 203.167,80.8333 201.5,81.5C 200.957,81.44 200.624,81.1067 200.5,80.5C 202.396,79.5344 204.396,79.2011 206.5,79.5 Z"/></g>
<g><path style="opacity:1" fill="#c1c0c0" d="M 29.5,69.5 C 30.166,72.3583 30.8326,75.3583 31.5,78.5C 33.4086,79.3482 35.4086,79.6816 37.5,79.5C 35.4687,79.9724 33.8021,80.9724 32.5,82.5C 30.4677,81.9522 29.4677,80.6188 29.5,78.5C 28.5,78.5 27.5,78.5 26.5,78.5C 26.5,78.1667 26.5,77.8333 26.5,77.5C 27.4959,77.5858 28.3292,77.2524 29,76.5C 29.4966,74.1902 29.6633,71.8568 29.5,69.5 Z"/></g>
<g><path style="opacity:1" fill="#b2b1b2" d="M 55.5,75.5 C 53.369,76.3138 51.0356,76.8138 48.5,77C 53.0169,78.5863 57.6836,79.4197 62.5,79.5C 60.5,80.1667 58.5,80.8333 56.5,81.5C 55.8333,81.5 55.1667,81.5 54.5,81.5C 54.0296,80.3065 53.0296,79.6399 51.5,79.5C 49.9704,79.6399 48.9704,80.3065 48.5,81.5C 47.5655,80.4324 47.2322,79.099 47.5,77.5C 46.1667,77.5 44.8333,77.5 43.5,77.5C 47.0293,75.5772 51.0293,74.9106 55.5,75.5 Z"/></g>
<g><path style="opacity:1" fill="#474445" d="M 54.5,81.5 C 52.5,81.5 50.5,81.5 48.5,81.5C 48.9704,80.3065 49.9704,79.6399 51.5,79.5C 53.0296,79.6399 54.0296,80.3065 54.5,81.5 Z"/></g>
<g><path style="opacity:1" fill="#a5c9e5" d="M 172.5,79.5 C 170.841,81.3427 168.675,82.3427 166,82.5C 164.301,82.6134 163.134,81.9468 162.5,80.5C 165.902,80.6576 169.236,80.3242 172.5,79.5 Z"/></g>
<g><path style="opacity:1" fill="#438eca" d="M 191.5,79.5 C 192.833,79.5 194.167,79.5 195.5,79.5C 195.5,80.8333 195.5,82.1667 195.5,83.5C 192.5,83.8333 191.167,82.5 191.5,79.5 Z"/></g>
<g><path style="opacity:1" fill="#fe2c37" d="M 214.5,71.5 C 214.5,72.8333 214.5,74.1667 214.5,75.5C 213.252,78.4845 211.585,81.3178 209.5,84C 206.073,85.1657 203.407,84.3324 201.5,81.5C 203.167,80.8333 204.833,80.1667 206.5,79.5C 208.38,79.7709 209.713,79.1042 210.5,77.5C 211.478,77.189 212.145,76.5223 212.5,75.5C 210.954,74.316 209.287,73.316 207.5,72.5C 207.624,71.8933 207.957,71.56 208.5,71.5C 212.31,70.7542 212.31,69.7542 208.5,68.5C 207.884,67.7978 207.884,66.7978 208.5,65.5C 212.492,64.8125 214.492,66.8125 214.5,71.5 Z"/></g>
<g><path style="opacity:1" fill="#2f2a2b" d="M 65.5,79.5 C 64.1346,83.2542 61.4679,84.4209 57.5,83C 56.944,82.6174 56.6107,82.1174 56.5,81.5C 58.5,80.8333 60.5,80.1667 62.5,79.5C 62.8333,79.5 63.1667,79.5 63.5,79.5C 64.3957,78.4937 65.0623,78.4937 65.5,79.5 Z"/></g>
<g><path style="opacity:1" fill="#3687c7" d="M 178.5,79.5 C 181.167,79.5 183.833,79.5 186.5,79.5C 186.5,80.5 186.5,81.5 186.5,82.5C 183.833,82.5 181.167,82.5 178.5,82.5C 178.5,81.5 178.5,80.5 178.5,79.5 Z"/></g>
<g><path style="opacity:1" fill="#7bafd9" d="M 36.5,92.5 C 34.1432,92.3367 31.8098,92.5034 29.5,93C 28.3652,97.7123 26.6985,102.212 24.5,106.5C 23.8933,106.376 23.56,106.043 23.5,105.5C 25.6781,101.519 27.1781,97.1853 28,92.5C 30.9365,91.1834 33.7699,91.1834 36.5,92.5 Z"/></g>
<g><path style="opacity:1" fill="#126fbc" d="M 19.5,92.5 C 21.5722,96.5808 22.9056,100.914 23.5,105.5C 23.56,106.043 23.8933,106.376 24.5,106.5C 26.6985,102.212 28.3652,97.7123 29.5,93C 31.8098,92.5034 34.1432,92.3367 36.5,92.5C 36.5,100.5 36.5,108.5 36.5,116.5C 34.8333,116.5 33.1667,116.5 31.5,116.5C 31.6659,111.489 31.4993,106.489 31,101.5C 30.2086,102.745 29.7086,104.078 29.5,105.5C 28.6792,109.284 27.6792,112.951 26.5,116.5C 24.8333,116.5 23.1667,116.5 21.5,116.5C 20.8333,113.833 20.1667,111.167 19.5,108.5C 19.8719,105.978 19.0386,103.978 17,102.5C 16.5008,107.155 16.3342,111.821 16.5,116.5C 15.1667,116.5 13.8333,116.5 12.5,116.5C 12.5,108.5 12.5,100.5 12.5,92.5C 14.8333,92.5 17.1667,92.5 19.5,92.5 Z"/></g>
<g><path style="opacity:1" fill="#b7d4eb" d="M 36.5,92.5 C 37.4834,96.2984 37.8168,100.298 37.5,104.5C 37.5,106.833 37.5,109.167 37.5,111.5C 37.5,113.833 37.5,116.167 37.5,118.5C 35.1667,118.5 32.8333,118.5 30.5,118.5C 30.8182,113.968 30.4849,109.634 29.5,105.5C 29.7086,104.078 30.2086,102.745 31,101.5C 31.4993,106.489 31.6659,111.489 31.5,116.5C 33.1667,116.5 34.8333,116.5 36.5,116.5C 36.5,108.5 36.5,100.5 36.5,92.5 Z"/></g>
<g><path style="opacity:1" fill="#61a6d5" d="M 67.5,98.5 C 66.791,99.404 65.791,99.7373 64.5,99.5C 64.5,97.1667 64.5,94.8333 64.5,92.5C 63.1667,92.5 61.8333,92.5 60.5,92.5C 60.5,100.5 60.5,108.5 60.5,116.5C 63.0593,116.198 65.3926,116.532 67.5,117.5C 64.8333,117.5 62.1667,117.5 59.5,117.5C 59.5,108.833 59.5,100.167 59.5,91.5C 61.5,91.5 63.5,91.5 65.5,91.5C 64.9898,94.3878 65.6565,96.7211 67.5,98.5 Z"/></g>
<g><path style="opacity:1" fill="#156fbb" d="M 67.5,98.5 C 72.543,98.1846 76.2096,100.185 78.5,104.5C 78.6323,107.57 78.299,110.57 77.5,113.5C 74.8652,116.481 71.5318,117.814 67.5,117.5C 65.3926,116.532 63.0593,116.198 60.5,116.5C 60.5,108.5 60.5,100.5 60.5,92.5C 61.8333,92.5 63.1667,92.5 64.5,92.5C 64.5,94.8333 64.5,97.1667 64.5,99.5C 65.791,99.7373 66.791,99.404 67.5,98.5 Z"/></g>
<g><path style="opacity:1" fill="#2877c0" d="M 81.5,92.5 C 83.1667,92.5 84.8333,92.5 86.5,92.5C 86.5,94.1667 86.5,95.8333 86.5,97.5C 84.8333,97.5 83.1667,97.5 81.5,97.5C 81.5,95.8333 81.5,94.1667 81.5,92.5 Z"/></g>
<g><path style="opacity:1" fill="#bad5eb" d="M 89.5,92.5 C 92.9619,91.5184 96.6286,91.185 100.5,91.5C 100.5,92.5 100.5,93.5 100.5,94.5C 98.8333,94.5 97.1667,94.5 95.5,94.5C 95.825,102.019 95.4916,109.352 94.5,116.5C 94.5,108.5 94.5,100.5 94.5,92.5C 92.8333,92.5 91.1667,92.5 89.5,92.5 Z"/></g>
<g><path style="opacity:1" fill="#5a9ed1" d="M 19.5,92.5 C 17.1667,92.5 14.8333,92.5 12.5,92.5C 12.5,100.5 12.5,108.5 12.5,116.5C 13.8333,116.5 15.1667,116.5 16.5,116.5C 15.0813,117.451 13.4147,117.784 11.5,117.5C 11.5,108.833 11.5,100.167 11.5,91.5C 14.3854,91.1936 17.0521,91.5269 19.5,92.5 Z"/></g>
<g><path style="opacity:1" fill="#297fc4" d="M 89.5,92.5 C 91.1667,92.5 92.8333,92.5 94.5,92.5C 94.5,100.5 94.5,108.5 94.5,116.5C 93.0813,117.451 91.4147,117.784 89.5,117.5C 89.5,109.167 89.5,100.833 89.5,92.5 Z"/></g>
<g><path style="opacity:1" fill="#0065b7" d="M 90.5,93.5 C 91.5,93.5 92.5,93.5 93.5,93.5C 93.5,101.167 93.5,108.833 93.5,116.5C 92.5,116.5 91.5,116.5 90.5,116.5C 90.5,108.833 90.5,101.167 90.5,93.5 Z"/></g>
<g><path style="opacity:1" fill="#322c2d" d="M 125.5,114.5 C 121.991,117.115 117.991,118.115 113.5,117.5C 112.504,117.586 111.671,117.252 111,116.5C 109.441,114.783 108.608,112.783 108.5,110.5C 111.746,110.602 114.58,111.602 117,113.5C 120.338,113.493 121.838,111.826 121.5,108.5C 114.743,109.135 110.41,106.301 108.5,100C 110.731,93.8281 115.064,91.8281 121.5,94C 122.563,95.1882 123.897,95.6882 125.5,95.5C 125.5,96.8333 125.5,98.1667 125.5,99.5C 121.833,98.8333 118.167,98.1667 114.5,97.5C 114.286,99.1439 114.62,100.644 115.5,102C 124.157,102.391 127.49,106.558 125.5,114.5 Z"/></g>
<g><path style="opacity:1" fill="#ffb8bf" d="M 44.5,98.5 C 45.4486,97.8476 46.6153,97.5143 48,97.5C 50.0081,97.3068 51.5081,97.9735 52.5,99.5C 49.9039,98.7347 47.2372,98.4013 44.5,98.5 Z"/></g>
<g><path style="opacity:1" fill="#ff2231" d="M 44.5,98.5 C 47.2372,98.4013 49.9039,98.7347 52.5,99.5C 58.0195,103.625 58.8528,108.625 55,114.5C 50.6821,117.973 46.1821,118.307 41.5,115.5C 38.9313,111.801 38.2646,107.801 39.5,103.5C 40.8333,101.5 42.5,99.8333 44.5,98.5 Z"/></g>
<g><path style="opacity:1" fill="#c8deef" d="M 81.5,92.5 C 84.0259,91.3433 86.6926,91.3433 89.5,92.5C 89.5,100.833 89.5,109.167 89.5,117.5C 88.5,117.5 87.5,117.5 86.5,117.5C 86.8229,111.31 86.4896,105.31 85.5,99.5C 84.1667,99.5 82.8333,99.5 81.5,99.5C 81.5,105.167 81.5,110.833 81.5,116.5C 80.8386,115.282 80.1719,113.949 79.5,112.5C 78.8165,112.863 78.1499,113.196 77.5,113.5C 78.299,110.57 78.6323,107.57 78.5,104.5C 79.3019,105.952 79.8019,107.618 80,109.5C 80.2332,105.415 80.7332,101.415 81.5,97.5C 83.1667,97.5 84.8333,97.5 86.5,97.5C 86.5,95.8333 86.5,94.1667 86.5,92.5C 84.8333,92.5 83.1667,92.5 81.5,92.5 Z"/></g>
<g><path style="opacity:1" fill="#0368b9" d="M 85.5,99.5 C 85.5,105.167 85.5,110.833 85.5,116.5C 84.1667,116.5 82.8333,116.5 81.5,116.5C 81.5,110.833 81.5,105.167 81.5,99.5C 82.8333,99.5 84.1667,99.5 85.5,99.5 Z"/></g>
<g><path style="opacity:1" fill="#d6d5d5" d="M 185.5,93.5 C 187.265,92.5386 189.265,92.2053 191.5,92.5C 191.182,97.0323 191.515,101.366 192.5,105.5C 192.5,107.833 192.5,110.167 192.5,112.5C 191.539,114.265 191.205,116.265 191.5,118.5C 188.941,118.802 186.607,118.468 184.5,117.5C 183.673,112.349 183.173,107.016 183,101.5C 182.617,102.056 182.117,102.389 181.5,102.5C 180.448,100.744 178.781,100.077 176.5,100.5C 178.279,98.6565 180.612,97.9898 183.5,98.5C 183.216,96.5853 183.549,94.9187 184.5,93.5C 184.5,95.1667 184.5,96.8333 184.5,98.5C 186.5,98.5 188.5,98.5 190.5,98.5C 190.5,96.8333 190.5,95.1667 190.5,93.5C 188.833,93.5 187.167,93.5 185.5,93.5 Z"/></g>
<g><path style="opacity:1" fill="#7c7b7c" d="M 184.5,93.5 C 184.833,93.5 185.167,93.5 185.5,93.5C 187.167,93.5 188.833,93.5 190.5,93.5C 190.5,95.1667 190.5,96.8333 190.5,98.5C 188.5,98.5 186.5,98.5 184.5,98.5C 184.5,96.8333 184.5,95.1667 184.5,93.5 Z"/></g>
<g><path style="opacity:1" fill="#1f1c1d" d="M 185.5,94.5 C 186.833,94.5 188.167,94.5 189.5,94.5C 189.5,95.5 189.5,96.5 189.5,97.5C 188.167,97.5 186.833,97.5 185.5,97.5C 185.5,96.5 185.5,95.5 185.5,94.5 Z"/></g>
<g><path style="opacity:1" fill="#878787" d="M 189.5,100.5 C 188.167,100.5 186.833,100.5 185.5,100.5C 185.5,106.167 185.5,111.833 185.5,117.5C 185.167,117.5 184.833,117.5 184.5,117.5C 184.5,111.5 184.5,105.5 184.5,99.5C 186.415,99.2155 188.081,99.5489 189.5,100.5 Z"/></g>
<g><path style="opacity:1" fill="#4e4a4b" d="M 140.5,100.5 C 133.113,100.686 132.779,101.686 139.5,103.5C 137.335,103.116 135.668,103.783 134.5,105.5C 135.5,105.833 136.5,106.167 137.5,106.5C 139.03,106.36 140.03,105.693 140.5,104.5C 142.549,104.706 142.883,105.539 141.5,107C 138.854,107.497 136.187,107.664 133.5,107.5C 133.702,103.155 132.369,102.488 129.5,105.5C 131.444,99.8107 135.11,98.144 140.5,100.5 Z"/></g>
<g><path style="opacity:1" fill="#322d2e" d="M 155.5,105.5 C 154.517,109.298 154.183,113.298 154.5,117.5C 152.833,117.5 151.167,117.5 149.5,117.5C 149.5,111.833 149.5,106.167 149.5,100.5C 152.935,101.368 156.269,101.368 159.5,100.5C 159.5,101.833 159.5,103.167 159.5,104.5C 157.901,104.232 156.568,104.566 155.5,105.5 Z"/></g>
<g><path style="opacity:1" fill="#211e1f" d="M 189.5,100.5 C 189.5,106.167 189.5,111.833 189.5,117.5C 188.167,117.5 186.833,117.5 185.5,117.5C 185.5,111.833 185.5,106.167 185.5,100.5C 186.833,100.5 188.167,100.5 189.5,100.5 Z"/></g>
<g><path style="opacity:1" fill="#292425" d="M 140.5,100.5 C 143.362,101.247 145.362,102.914 146.5,105.5C 146.5,106.833 146.5,108.167 146.5,109.5C 142.167,109.5 137.833,109.5 133.5,109.5C 133.285,111.179 133.952,112.179 135.5,112.5C 138.713,112.891 142.047,113.225 145.5,113.5C 144.476,114.852 143.476,116.185 142.5,117.5C 132.407,119.632 128.074,115.632 129.5,105.5C 132.369,102.488 133.702,103.155 133.5,107.5C 136.187,107.664 138.854,107.497 141.5,107C 142.883,105.539 142.549,104.706 140.5,104.5C 140.5,103.833 140.167,103.5 139.5,103.5C 132.779,101.686 133.113,100.686 140.5,100.5 Z"/></g>
<g><path style="opacity:1" fill="#ffc7cc" d="M 51.5,109.5 C 51.67,108.178 51.3366,107.011 50.5,106C 48.5273,105.505 46.5273,105.338 44.5,105.5C 46.4929,103.042 48.8262,102.875 51.5,105C 52.8009,106.616 52.8009,108.116 51.5,109.5 Z"/></g>
<g><path style="opacity:1" fill="#cac9c9" d="M 139.5,103.5 C 140.167,103.5 140.5,103.833 140.5,104.5C 140.03,105.693 139.03,106.36 137.5,106.5C 136.5,106.167 135.5,105.833 134.5,105.5C 135.668,103.783 137.335,103.116 139.5,103.5 Z"/></g>
<g><path style="opacity:1" fill="#a6a5a5" d="M 167.5,100.5 C 166.167,100.5 164.833,100.5 163.5,100.5C 163.629,102.216 163.962,103.883 164.5,105.5C 162.72,104.01 162.054,102.01 162.5,99.5C 164.415,99.2155 166.081,99.5489 167.5,100.5 Z"/></g>
<g><path style="opacity:1" fill="#fdb6be" d="M 39.5,103.5 C 38.2646,107.801 38.9313,111.801 41.5,115.5C 39.8058,114.473 38.4725,113.139 37.5,111.5C 37.5,109.167 37.5,106.833 37.5,104.5C 38.1667,104.167 38.8333,103.833 39.5,103.5 Z"/></g>
<g><path style="opacity:1" fill="#ffeeef" d="M 44.5,105.5 C 46.5273,105.338 48.5273,105.505 50.5,106C 51.3366,107.011 51.67,108.178 51.5,109.5C 50.3752,112.128 48.3752,112.961 45.5,112C 44.5769,109.959 44.2436,107.792 44.5,105.5 Z"/></g>
<g><path style="opacity:1" fill="#ebf2f9" d="M 66.5,103.5 C 72.487,102.977 74.487,105.477 72.5,111C 65.7496,112.469 63.7496,109.969 66.5,103.5 Z"/></g>
<g><path style="opacity:1" fill="#6da5d6" d="M 85.5,99.5 C 86.4896,105.31 86.8229,111.31 86.5,117.5C 84.5853,117.784 82.9187,117.451 81.5,116.5C 82.8333,116.5 84.1667,116.5 85.5,116.5C 85.5,110.833 85.5,105.167 85.5,99.5 Z"/></g>
<g><path style="opacity:1" fill="#2d2829" d="M 167.5,100.5 C 169.141,103.276 170.641,106.276 172,109.5C 173.057,106.243 174.557,103.243 176.5,100.5C 178.781,100.077 180.448,100.744 181.5,102.5C 179.85,105.799 178.184,109.132 176.5,112.5C 175.053,113.622 174.053,115.122 173.5,117C 172.552,117.483 171.552,117.649 170.5,117.5C 169.032,113.231 167.032,109.231 164.5,105.5C 163.962,103.883 163.629,102.216 163.5,100.5C 164.833,100.5 166.167,100.5 167.5,100.5 Z"/></g>
<g><path style="opacity:1" fill="#83b9de" d="M 19.5,108.5 C 18.7321,107.737 18.2321,106.737 18,105.5C 17.8227,109.356 17.3227,113.023 16.5,116.5C 16.3342,111.821 16.5008,107.155 17,102.5C 19.0386,103.978 19.8719,105.978 19.5,108.5 Z"/></g>
<g><path style="opacity:1" fill="#9e9d9d" d="M 146.5,109.5 C 142.558,109.875 138.891,110.875 135.5,112.5C 133.952,112.179 133.285,111.179 133.5,109.5C 137.833,109.5 142.167,109.5 146.5,109.5 Z"/></g>
<g><path style="opacity:1" fill="#868384" d="M 194.5,103.5 C 193.167,107.167 193.167,110.833 194.5,114.5C 193.5,114.167 192.833,113.5 192.5,112.5C 192.5,110.167 192.5,107.833 192.5,105.5C 192.833,104.5 193.5,103.833 194.5,103.5 Z"/></g>
<g><path style="opacity:1" fill="#cbcaca" d="M 155.5,105.5 C 156.568,104.566 157.901,104.232 159.5,104.5C 159.5,103.167 159.5,101.833 159.5,100.5C 156.269,101.368 152.935,101.368 149.5,100.5C 149.5,106.167 149.5,111.833 149.5,117.5C 148.069,117.119 147.236,116.119 147,114.5C 145.871,116.141 144.371,117.141 142.5,117.5C 143.476,116.185 144.476,114.852 145.5,113.5C 142.047,113.225 138.713,112.891 135.5,112.5C 138.891,110.875 142.558,109.875 146.5,109.5C 146.5,108.167 146.5,106.833 146.5,105.5C 147.117,105.611 147.617,105.944 148,106.5C 148.497,103.854 148.664,101.187 148.5,98.5C 152.5,98.5 156.5,98.5 160.5,98.5C 160.5,100.833 160.5,103.167 160.5,105.5C 158.833,105.5 157.167,105.5 155.5,105.5 Z"/></g>
<g><path style="opacity:1" fill="#c1c0c0" d="M 229.5,103.5 C 230.117,103.611 230.617,103.944 231,104.5C 231.805,107.696 231.638,110.696 230.5,113.5C 230.209,112.351 229.376,111.684 228,111.5C 225.399,113.153 222.565,113.653 219.5,113C 218.663,111.989 218.33,110.822 218.5,109.5C 222.5,109.5 226.5,109.5 230.5,109.5C 230.483,107.435 230.15,105.435 229.5,103.5 Z"/></g>
<g><path style="opacity:1" fill="#2c2627" d="M 207.5,116.5 C 202.662,118.357 198.329,117.69 194.5,114.5C 193.167,110.833 193.167,107.167 194.5,103.5C 198.728,98.623 203.395,98.2896 208.5,102.5C 209.429,103.689 209.762,105.022 209.5,106.5C 206.678,106.322 204.011,105.655 201.5,104.5C 200.228,104.57 199.062,104.903 198,105.5C 197.042,113.58 200.209,115.58 207.5,111.5C 208.167,111.833 208.833,112.167 209.5,112.5C 208.82,113.86 208.153,115.193 207.5,116.5 Z"/></g>
<g><path style="opacity:1" fill="#322d2e" d="M 229.5,103.5 C 230.15,105.435 230.483,107.435 230.5,109.5C 226.5,109.5 222.5,109.5 218.5,109.5C 218.33,110.822 218.663,111.989 219.5,113C 222.565,113.653 225.399,113.153 228,111.5C 229.376,111.684 230.209,112.351 230.5,113.5C 229.599,114.29 228.932,115.29 228.5,116.5C 225.236,117.324 221.902,117.658 218.5,117.5C 216.771,116.883 215.271,115.883 214,114.5C 211.264,106.403 213.93,101.403 222,99.5C 225.059,99.9441 227.559,101.277 229.5,103.5 Z"/></g>
<g><path style="opacity:1" fill="#a5a4a4" d="M 220.5,102.5 C 222.912,102.244 224.579,103.244 225.5,105.5C 223.167,106.833 220.833,106.833 218.5,105.5C 219.193,104.482 219.859,103.482 220.5,102.5 Z"/></g>
<g><path style="opacity:1" fill="#b4b2b3" d="M 125.5,114.5 C 125.5,115.5 125.5,116.5 125.5,117.5C 121.352,118.644 117.352,118.644 113.5,117.5C 117.991,118.115 121.991,117.115 125.5,114.5 Z"/></g>
<g><path style="opacity:1" fill="#9e9c9c" d="M 176.5,112.5 C 176.636,117.398 174.636,119.065 170.5,117.5C 171.552,117.649 172.552,117.483 173.5,117C 174.053,115.122 175.053,113.622 176.5,112.5 Z"/></g>
<g><path style="opacity:1" fill="#bbbaba" d="M 194.5,114.5 C 198.329,117.69 202.662,118.357 207.5,116.5C 207.389,117.117 207.056,117.617 206.5,118C 202.789,118.825 199.122,118.659 195.5,117.5C 194.873,116.583 194.539,115.583 194.5,114.5 Z"/></g>
<g><path style="opacity:1" fill="#c6c5c5" d="M 228.5,116.5 C 226.968,118.456 224.801,119.456 222,119.5C 220.301,119.613 219.134,118.947 218.5,117.5C 221.902,117.658 225.236,117.324 228.5,116.5 Z"/></g>
</svg>
