<?xml version="1.0" encoding="UTF-8"?>
<!DOCTYPE svg PUBLIC "-//W3C//DTD SVG 1.1//EN" "http://www.w3.org/Graphics/SVG/1.1/DTD/svg11.dtd">
<svg xmlns="http://www.w3.org/2000/svg" version="1.1" width="228px" height="115px" style="shape-rendering:geometricPrecision; text-rendering:geometricPrecision; image-rendering:optimizeQuality; fill-rule:evenodd; clip-rule:evenodd" xmlns:xlink="http://www.w3.org/1999/xlink">
<g><path style="opacity:1" fill="#fdfdfd" d="M -0.5,-0.5 C 75.5,-0.5 151.5,-0.5 227.5,-0.5C 227.5,37.8333 227.5,76.1667 227.5,114.5C 151.5,114.5 75.5,114.5 -0.5,114.5C -0.5,76.1667 -0.5,37.8333 -0.5,-0.5 Z"/></g>
<g><path style="opacity:1" fill="#f6cab1" d="M 18.5,34.5 C 32.1667,33.1667 45.8333,33.1667 59.5,34.5C 59.5569,35.609 59.8902,36.609 60.5,37.5C 60.1667,37.5 59.8333,37.5 59.5,37.5C 58.2719,38.3065 57.2719,39.3065 56.5,40.5C 56.5,39.1667 55.8333,38.5 54.5,38.5C 54.8333,37.5 55.5,36.8333 56.5,36.5C 57.2891,36.2172 57.9558,35.7172 58.5,35C 45.1708,34.5001 31.8375,34.3334 18.5,34.5 Z"/></g>
<g><path style="opacity:1" fill="#f06e3e" d="M 18.5,35.5 C 18.5,35.1667 18.5,34.8333 18.5,34.5C 31.8375,34.3334 45.1708,34.5001 58.5,35C 57.9558,35.7172 57.2891,36.2172 56.5,36.5C 44.3446,35.5048 32.0113,35.1714 19.5,35.5C 19.1667,35.5 18.8333,35.5 18.5,35.5 Z"/></g>
<g><path style="opacity:1" fill="#f45d1e" d="M 18.5,35.5 C 18.8333,35.5 19.1667,35.5 19.5,35.5C 19.3337,42.8409 19.5003,50.1742 20,57.5C 20.6708,58.2524 21.5041,58.5858 22.5,58.5C 21.8333,59.5 21.1667,60.5 20.5,61.5C 18.5302,53.2312 17.8636,44.5645 18.5,35.5 Z"/></g>
<g><path style="opacity:1" fill="#3d486c" d="M 97.5,36.5 C 97.8333,39.5 96.5,40.8333 93.5,40.5C 92.3871,39.0536 92.2204,37.3869 93,35.5C 94.9151,34.0844 96.4151,34.4178 97.5,36.5 Z"/></g>
<g><path style="opacity:1" fill="#3e496e" d="M 104.5,40.5 C 103.167,40.5 101.833,40.5 100.5,40.5C 100.5,38.8333 100.5,37.1667 100.5,35.5C 105.243,33.9228 106.576,35.5895 104.5,40.5 Z"/></g>
<g><path style="opacity:1" fill="#fa4b03" d="M 19.5,35.5 C 32.0113,35.1714 44.3446,35.5048 56.5,36.5C 55.5,36.8333 54.8333,37.5 54.5,38.5C 50.9754,39.7589 47.9754,41.7589 45.5,44.5C 44.2905,44.9321 43.2905,45.5987 42.5,46.5C 40.9731,46.427 39.9731,47.0937 39.5,48.5C 37.9731,48.427 36.9731,49.0937 36.5,50.5C 34.9731,50.427 33.9731,51.0937 33.5,52.5C 31.9731,52.427 30.9731,53.0937 30.5,54.5C 28.9731,54.427 27.9731,55.0937 27.5,56.5C 25.9731,56.427 24.9731,57.0937 24.5,58.5C 23.8333,58.5 23.1667,58.5 22.5,58.5C 21.5041,58.5858 20.6708,58.2524 20,57.5C 19.5003,50.1742 19.3337,42.8409 19.5,35.5 Z"/></g>
<g><path style="opacity:1" fill="#7e859c" d="M 143.5,38.5 C 140.482,38.3354 137.482,38.502 134.5,39C 132.881,39.2355 131.881,40.0689 131.5,41.5C 130.596,40.791 130.263,39.791 130.5,38.5C 134.98,37.3376 139.313,37.3376 143.5,38.5 Z"/></g>
<g><path style="opacity:1" fill="#767e98" d="M 172.5,38.5 C 169.167,38.5 165.833,38.5 162.5,38.5C 162.5,39.8333 162.5,41.1667 162.5,42.5C 165.385,42.1936 168.052,42.5269 170.5,43.5C 167.5,43.5 164.5,43.5 161.5,43.5C 161.5,41.5 161.5,39.5 161.5,37.5C 165.371,37.185 169.038,37.5184 172.5,38.5 Z"/></g>
<g><path style="opacity:1" fill="#f5aa8c" d="M 18.5,34.5 C 18.5,34.8333 18.5,35.1667 18.5,35.5C 17.8636,44.5645 18.5302,53.2312 20.5,61.5C 19.791,62.404 18.791,62.7373 17.5,62.5C 17.1731,52.985 17.5064,43.6517 18.5,34.5 Z"/></g>
<g><path style="opacity:1" fill="#d5d8de" d="M 100.5,35.5 C 100.5,37.1667 100.5,38.8333 100.5,40.5C 101.833,40.5 103.167,40.5 104.5,40.5C 100.833,41.8333 97.1667,41.8333 93.5,40.5C 96.5,40.8333 97.8333,39.5 97.5,36.5C 98.609,36.4431 99.609,36.1098 100.5,35.5 Z"/></g>
<g><path style="opacity:1" fill="#fae3d4" d="M 54.5,38.5 C 55.8333,38.5 56.5,39.1667 56.5,40.5C 55.6618,40.8417 55.3284,41.5084 55.5,42.5C 54.0937,42.9731 53.427,43.9731 53.5,45.5C 53.1667,45.5 52.8333,45.5 52.5,45.5C 52.6495,44.448 52.4828,43.448 52,42.5C 49.9129,43.3972 47.7463,44.0639 45.5,44.5C 47.9754,41.7589 50.9754,39.7589 54.5,38.5 Z"/></g>
<g><path style="opacity:1" fill="#fd9922" d="M 59.5,37.5 C 59.5,45.8333 59.5,54.1667 59.5,62.5C 54.1667,62.5 48.8333,62.5 43.5,62.5C 43.5,61.5 43.5,60.5 43.5,59.5C 44.1667,58.8333 44.8333,58.1667 45.5,57.5C 48.6217,55.8743 50.2883,53.2076 50.5,49.5C 52.2624,48.7377 53.2624,47.4044 53.5,45.5C 54.9063,45.0269 55.573,44.0269 55.5,42.5C 55.3284,41.5084 55.6618,40.8417 56.5,40.5C 57.2719,39.3065 58.2719,38.3065 59.5,37.5 Z"/></g>
<g><path style="opacity:1" fill="#25345e" d="M 143.5,38.5 C 145.807,39.9774 147.64,41.9774 149,44.5C 149.464,49.054 150.631,53.3873 152.5,57.5C 152.5,58.8333 152.5,60.1667 152.5,61.5C 142.5,61.5 132.5,61.5 122.5,61.5C 120.704,59.0698 119.037,59.0698 117.5,61.5C 104.833,62.8333 92.1667,62.8333 79.5,61.5C 78.3698,60.3777 77.7031,59.0443 77.5,57.5C 77.5,53.8333 77.5,50.1667 77.5,46.5C 78.5,46.5 79.5,46.5 80.5,46.5C 80.19,49.7131 80.5233,52.7131 81.5,55.5C 81.6107,56.1174 81.944,56.6174 82.5,57C 93.3414,57.8255 104.008,57.6588 114.5,56.5C 115.167,56.5 115.5,56.1667 115.5,55.5C 116.487,50.6946 116.821,45.6946 116.5,40.5C 117.833,40.5 119.167,40.5 120.5,40.5C 120.334,45.5111 120.501,50.5111 121,55.5C 121.383,56.056 121.883,56.3893 122.5,56.5C 122.833,56.5 123.167,56.5 123.5,56.5C 123.5,57.1667 123.833,57.5 124.5,57.5C 131.982,58.492 139.648,58.8254 147.5,58.5C 147.737,57.209 147.404,56.209 146.5,55.5C 146.068,54.2905 145.401,53.2905 144.5,52.5C 144.59,49.8478 143.924,47.5145 142.5,45.5C 142.167,44.5 141.5,43.8333 140.5,43.5C 137.656,42.4489 134.656,42.4489 131.5,43.5C 131.5,42.8333 131.5,42.1667 131.5,41.5C 131.881,40.0689 132.881,39.2355 134.5,39C 137.482,38.502 140.482,38.3354 143.5,38.5 Z"/></g>
<g><path style="opacity:1" fill="#8f97ab" d="M 120.5,40.5 C 121.259,45.6979 121.925,51.0313 122.5,56.5C 121.883,56.3893 121.383,56.056 121,55.5C 120.501,50.5111 120.334,45.5111 120.5,40.5 Z"/></g>
<g><path style="opacity:1" fill="#25335e" d="M 172.5,38.5 C 176.008,39.7366 178.342,42.0699 179.5,45.5C 179.068,48.8774 179.735,51.8774 181.5,54.5C 181.5,54.8333 181.5,55.1667 181.5,55.5C 181.611,56.1174 181.944,56.6174 182.5,57C 186.821,57.499 191.154,57.6657 195.5,57.5C 195.5,51.8333 195.5,46.1667 195.5,40.5C 196.833,40.5 198.167,40.5 199.5,40.5C 199.5,47.5 199.5,54.5 199.5,61.5C 193.108,61.7513 186.775,61.418 180.5,60.5C 179.053,59.1148 178.053,59.4482 177.5,61.5C 176.833,61.5 176.167,61.5 175.5,61.5C 170.167,61.5 164.833,61.5 159.5,61.5C 159.5,60.5 159.5,59.5 159.5,58.5C 164.032,58.8182 168.366,58.4849 172.5,57.5C 173.117,57.3893 173.617,57.056 174,56.5C 174.667,52.8333 174.667,49.1667 174,45.5C 172.887,44.695 171.721,44.0283 170.5,43.5C 168.052,42.5269 165.385,42.1936 162.5,42.5C 162.5,41.1667 162.5,39.8333 162.5,38.5C 165.833,38.5 169.167,38.5 172.5,38.5 Z"/></g>
<g><path style="opacity:1" fill="#babecb" d="M 195.5,40.5 C 195.5,46.1667 195.5,51.8333 195.5,57.5C 191.154,57.6657 186.821,57.499 182.5,57C 181.944,56.6174 181.611,56.1174 181.5,55.5C 185.768,56.3726 190.102,56.7059 194.5,56.5C 194.179,50.9738 194.512,45.6405 195.5,40.5 Z"/></g>
<g><path style="opacity:1" fill="#5c6685" d="M 120.5,40.5 C 119.167,40.5 117.833,40.5 116.5,40.5C 116.821,45.6946 116.487,50.6946 115.5,55.5C 115.5,50.1667 115.5,44.8333 115.5,39.5C 117.415,39.2155 119.081,39.5489 120.5,40.5 Z"/></g>
<g><path style="opacity:1" fill="#8890a6" d="M 140.5,43.5 C 137.304,44.1115 134.304,44.1115 131.5,43.5C 134.656,42.4489 137.656,42.4489 140.5,43.5 Z"/></g>
<g><path style="opacity:1" fill="#f6b366" d="M 55.5,42.5 C 55.573,44.0269 54.9063,45.0269 53.5,45.5C 53.427,43.9731 54.0937,42.9731 55.5,42.5 Z"/></g>
<g><path style="opacity:1" fill="#fcefdf" d="M 59.5,34.5 C 60.1174,34.6107 60.6174,34.944 61,35.5C 61.824,44.6762 61.6573,53.6762 60.5,62.5C 60.5,54.1667 60.5,45.8333 60.5,37.5C 59.8902,36.609 59.5569,35.609 59.5,34.5 Z"/></g>
<g><path style="opacity:1" fill="#f4b197" d="M 42.5,46.5 C 42.0269,47.9063 41.0269,48.573 39.5,48.5C 39.9731,47.0937 40.9731,46.427 42.5,46.5 Z"/></g>
<g><path style="opacity:1" fill="#f8ba73" d="M 52.5,45.5 C 52.8333,45.5 53.1667,45.5 53.5,45.5C 53.2624,47.4044 52.2624,48.7377 50.5,49.5C 50.7329,47.9382 51.3995,46.6049 52.5,45.5 Z"/></g>
<g><path style="opacity:1" fill="#f4af93" d="M 39.5,48.5 C 39.0269,49.9063 38.0269,50.573 36.5,50.5C 36.9731,49.0937 37.9731,48.427 39.5,48.5 Z"/></g>
<g><path style="opacity:1" fill="#f6b99e" d="M 36.5,50.5 C 36.0269,51.9063 35.0269,52.573 33.5,52.5C 33.9731,51.0937 34.9731,50.427 36.5,50.5 Z"/></g>
<g><path style="opacity:1" fill="#c4c9d4" d="M 142.5,45.5 C 143.924,47.5145 144.59,49.8478 144.5,52.5C 143.076,50.4855 142.41,48.1522 142.5,45.5 Z"/></g>
<g><path style="opacity:1" fill="#bec3ce" d="M 179.5,45.5 C 180.657,48.2727 181.324,51.2727 181.5,54.5C 179.735,51.8774 179.068,48.8774 179.5,45.5 Z"/></g>
<g><path style="opacity:1" fill="#3d4a6c" d="M 76.5,45.5 C 78.1667,45.5 79.8333,45.5 81.5,45.5C 81.5,48.8333 81.5,52.1667 81.5,55.5C 80.5233,52.7131 80.19,49.7131 80.5,46.5C 79.5,46.5 78.5,46.5 77.5,46.5C 77.5,50.1667 77.5,53.8333 77.5,57.5C 76.5166,53.7016 76.1832,49.7016 76.5,45.5 Z"/></g>
<g><path style="opacity:1" fill="#f6b49f" d="M 33.5,52.5 C 33.0269,53.9063 32.0269,54.573 30.5,54.5C 30.9731,53.0937 31.9731,52.427 33.5,52.5 Z"/></g>
<g><path style="opacity:1" fill="#f9ac56" d="M 50.5,49.5 C 50.2883,53.2076 48.6217,55.8743 45.5,57.5C 46.1695,54.1511 47.8361,51.4844 50.5,49.5 Z"/></g>
<g><path style="opacity:1" fill="#f7b097" d="M 30.5,54.5 C 30.0269,55.9063 29.0269,56.573 27.5,56.5C 27.9731,55.0937 28.9731,54.427 30.5,54.5 Z"/></g>
<g><path style="opacity:1" fill="#c9cdd6" d="M 76.5,45.5 C 78.6074,44.5318 80.9407,44.1984 83.5,44.5C 83.2065,48.4367 83.5399,52.27 84.5,56C 94.4944,56.4998 104.494,56.6665 114.5,56.5C 104.008,57.6588 93.3414,57.8255 82.5,57C 81.944,56.6174 81.6107,56.1174 81.5,55.5C 81.5,52.1667 81.5,48.8333 81.5,45.5C 79.8333,45.5 78.1667,45.5 76.5,45.5 Z"/></g>
<g><path style="opacity:1" fill="#c6c9d3" d="M 144.5,52.5 C 145.401,53.2905 146.068,54.2905 146.5,55.5C 139.576,57.4633 132.243,58.1299 124.5,57.5C 123.833,57.5 123.5,57.1667 123.5,56.5C 130.5,56.5 137.5,56.5 144.5,56.5C 144.5,55.1667 144.5,53.8333 144.5,52.5 Z"/></g>
<g><path style="opacity:1" fill="#f6b79c" d="M 27.5,56.5 C 27.0269,57.9063 26.0269,58.573 24.5,58.5C 24.9731,57.0937 25.9731,56.427 27.5,56.5 Z"/></g>
<g><path style="opacity:1" fill="#4d5778" d="M 146.5,55.5 C 147.404,56.209 147.737,57.209 147.5,58.5C 139.648,58.8254 131.982,58.492 124.5,57.5C 132.243,58.1299 139.576,57.4633 146.5,55.5 Z"/></g>
<g><path style="opacity:1" fill="#f4baa1" d="M 22.5,58.5 C 23.1667,58.5 23.8333,58.5 24.5,58.5C 23.7377,60.2624 22.4044,61.2624 20.5,61.5C 21.1667,60.5 21.8333,59.5 22.5,58.5 Z"/></g>
<g><path style="opacity:1" fill="#b1b6bf" d="M 68.5,57.5 C 72.35,57.7007 73.35,59.5341 71.5,63C 67.5369,63.1177 66.5369,61.2843 68.5,57.5 Z"/></g>
<g><path style="opacity:1" fill="#9aa1b2" d="M 180.5,60.5 C 179.391,60.5569 178.391,60.8902 177.5,61.5C 178.053,59.4482 179.053,59.1148 180.5,60.5 Z"/></g>
<g><path style="opacity:1" fill="#3d486d" d="M 152.5,57.5 C 153.451,58.9187 153.784,60.5853 153.5,62.5C 142.986,62.8276 132.653,62.4942 122.5,61.5C 132.5,61.5 142.5,61.5 152.5,61.5C 152.5,60.1667 152.5,58.8333 152.5,57.5 Z"/></g>
<g><path style="opacity:1" fill="#434e71" d="M 172.5,57.5 C 168.366,58.4849 164.032,58.8182 159.5,58.5C 159.5,59.5 159.5,60.5 159.5,61.5C 164.833,61.5 170.167,61.5 175.5,61.5C 170.025,62.4889 164.358,62.8222 158.5,62.5C 158.5,60.8333 158.5,59.1667 158.5,57.5C 163.167,57.5 167.833,57.5 172.5,57.5 Z"/></g>
<g><path style="opacity:1" fill="#414d6f" d="M 199.5,40.5 C 200.492,47.6476 200.825,54.9809 200.5,62.5C 194.158,62.6662 187.825,62.4995 181.5,62C 180.944,61.6174 180.611,61.1174 180.5,60.5C 186.775,61.418 193.108,61.7513 199.5,61.5C 199.5,54.5 199.5,47.5 199.5,40.5 Z"/></g>
<g><path style="opacity:1" fill="#f8cc9b" d="M 59.5,37.5 C 59.8333,37.5 60.1667,37.5 60.5,37.5C 60.5,45.8333 60.5,54.1667 60.5,62.5C 54.3554,63.4902 48.0221,63.8235 41.5,63.5C 41.2291,61.6203 41.8958,60.287 43.5,59.5C 43.5,60.5 43.5,61.5 43.5,62.5C 48.8333,62.5 54.1667,62.5 59.5,62.5C 59.5,54.1667 59.5,45.8333 59.5,37.5 Z"/></g>
<g><path style="opacity:1" fill="#394469" d="M 137.5,67.5 C 141.138,66.7366 142.638,68.0699 142,71.5C 137.415,73.4126 135.915,72.0793 137.5,67.5 Z"/></g>
<g><path style="opacity:1" fill="#3d476d" d="M 200.5,71.5 C 199.292,72.2341 197.959,72.5674 196.5,72.5C 194.418,71.4151 194.084,69.9151 195.5,68C 198.926,66.7619 200.592,67.9286 200.5,71.5 Z"/></g>
<g><path style="opacity:1" fill="#a4a6b4" d="M 137.5,78.5 C 138.978,78.238 140.311,78.5713 141.5,79.5C 140.833,79.8333 140.167,80.1667 139.5,80.5C 138.287,80.2528 137.62,79.5862 137.5,78.5 Z"/></g>
<g><path style="opacity:1" fill="#838ba1" d="M 196.5,76.5 C 196.5,76.8333 196.5,77.1667 196.5,77.5C 195.833,80.8333 195.167,84.1667 194.5,87.5C 193.92,83.351 194.586,79.6843 196.5,76.5 Z"/></g>
<g><path style="opacity:1" fill="#e1e2e8" d="M 200.5,71.5 C 200.489,73.0174 199.823,74.1841 198.5,75C 200.119,75.2355 201.119,76.0689 201.5,77.5C 200.85,77.1961 200.183,76.8627 199.5,76.5C 198.508,80.7828 198.174,85.1161 198.5,89.5C 197.833,89.5 197.167,89.5 196.5,89.5C 196.5,85.5 196.5,81.5 196.5,77.5C 196.5,77.1667 196.5,76.8333 196.5,76.5C 197.354,75.3684 197.354,74.035 196.5,72.5C 197.959,72.5674 199.292,72.2341 200.5,71.5 Z"/></g>
<g><path style="opacity:1" fill="#9da1af" d="M 154.5,82.5 C 151.075,82.3668 150.742,83.0335 153.5,84.5C 152.5,84.5 151.5,84.5 150.5,84.5C 150.5,83.5 150.5,82.5 150.5,81.5C 152.099,81.2322 153.432,81.5655 154.5,82.5 Z"/></g>
<g><path style="opacity:1" fill="#7e8298" d="M 164.5,83.5 C 163.833,83.5 163.5,83.8333 163.5,84.5C 161.821,84.2852 160.821,84.9519 160.5,86.5C 159.833,85.8333 159.167,85.1667 158.5,84.5C 160.097,81.0162 162.097,80.6829 164.5,83.5 Z"/></g>
<g><path style="opacity:1" fill="#999fb1" d="M 201.5,77.5 C 201.5,81.5 201.5,85.5 201.5,89.5C 200.5,89.5 199.5,89.5 198.5,89.5C 198.174,85.1161 198.508,80.7828 199.5,76.5C 200.183,76.8627 200.85,77.1961 201.5,77.5 Z"/></g>
<g><path style="opacity:1" fill="#656e89" d="M 147.5,82.5 C 147.5,84.8333 147.5,87.1667 147.5,89.5C 143.187,90.0095 139.187,89.3429 135.5,87.5C 135.473,81.9841 137.64,80.6508 142,83.5C 142.49,84.7932 142.657,86.1266 142.5,87.5C 143.5,87.5 144.5,87.5 145.5,87.5C 145.077,85.2188 145.744,83.5521 147.5,82.5 Z"/></g>
<g><path style="opacity:1" fill="#dcdee4" d="M 137.5,84.5 C 138.5,84.5 139.5,84.5 140.5,84.5C 140.5,85.5 140.5,86.5 140.5,87.5C 139.5,87.5 138.5,87.5 137.5,87.5C 137.5,86.5 137.5,85.5 137.5,84.5 Z"/></g>
<g><path style="opacity:1" fill="#6d758f" d="M 154.5,82.5 C 155.117,82.6107 155.617,82.944 156,83.5C 156.495,85.4727 156.662,87.4727 156.5,89.5C 153.612,90.0102 151.279,89.3435 149.5,87.5C 151.167,87.5 152.833,87.5 154.5,87.5C 154.737,86.209 154.404,85.209 153.5,84.5C 150.742,83.0335 151.075,82.3668 154.5,82.5 Z"/></g>
<g><path style="opacity:1" fill="#616b85" d="M 196.5,77.5 C 196.5,81.5 196.5,85.5 196.5,89.5C 185.448,88.8572 174.781,89.5238 164.5,91.5C 163.596,90.791 163.263,89.791 163.5,88.5C 162.167,88.5 160.833,88.5 159.5,88.5C 158.566,87.4324 158.232,86.099 158.5,84.5C 159.167,85.1667 159.833,85.8333 160.5,86.5C 161.209,87.404 162.209,87.7373 163.5,87.5C 163.5,86.5 163.5,85.5 163.5,84.5C 163.5,83.8333 163.833,83.5 164.5,83.5C 165.434,84.5676 165.768,85.901 165.5,87.5C 166.675,87.719 167.675,87.3857 168.5,86.5C 166.722,83.1689 167.722,81.5022 171.5,81.5C 175.278,81.5022 176.278,83.1689 174.5,86.5C 176.045,87.4519 177.712,87.7852 179.5,87.5C 179.281,86.325 179.614,85.325 180.5,84.5C 181.298,84.9569 181.631,85.6236 181.5,86.5C 182.209,87.404 183.209,87.7373 184.5,87.5C 184.367,84.075 185.033,83.7417 186.5,86.5C 187.209,87.404 188.209,87.7373 189.5,87.5C 189.343,86.1266 189.51,84.7932 190,83.5C 190.232,84.7375 190.732,85.7375 191.5,86.5C 192.209,87.404 193.209,87.7373 194.5,87.5C 195.167,84.1667 195.833,80.8333 196.5,77.5 Z"/></g>
<g><path style="opacity:1" fill="#b5b9c7" d="M 186.5,86.5 C 185.033,83.7417 184.367,84.075 184.5,87.5C 183.209,87.7373 182.209,87.404 181.5,86.5C 183.048,86.1788 183.715,85.1788 183.5,83.5C 184.5,83.5 185.5,83.5 186.5,83.5C 186.5,84.5 186.5,85.5 186.5,86.5 Z"/></g>
<g><path style="opacity:1" fill="#d9dce2" d="M 163.5,84.5 C 163.5,85.5 163.5,86.5 163.5,87.5C 162.209,87.7373 161.209,87.404 160.5,86.5C 160.821,84.9519 161.821,84.2852 163.5,84.5 Z"/></g>
<g><path style="opacity:1" fill="#bcc1ce" d="M 169.5,83.5 C 170.978,83.238 172.311,83.5713 173.5,84.5C 171.537,87.1939 170.203,86.8606 169.5,83.5 Z"/></g>
<g><path style="opacity:1" fill="#a7acbc" d="M 191.5,86.5 C 190.732,85.7375 190.232,84.7375 190,83.5C 189.51,84.7932 189.343,86.1266 189.5,87.5C 188.209,87.7373 187.209,87.404 186.5,86.5C 188.176,85.8166 188.843,84.4832 188.5,82.5C 189.5,82.5 190.5,82.5 191.5,82.5C 191.5,83.8333 191.5,85.1667 191.5,86.5 Z"/></g>
<g><path style="opacity:1" fill="#d8dae0" d="M 147.5,82.5 C 148.167,84.1667 148.833,85.8333 149.5,87.5C 151.279,89.3435 153.612,90.0102 156.5,89.5C 152.063,90.6714 147.729,92.0048 143.5,93.5C 143.5,92.5 143.5,91.5 143.5,90.5C 140.482,90.6646 137.482,90.498 134.5,90C 135.252,89.3292 135.586,88.4959 135.5,87.5C 139.187,89.3429 143.187,90.0095 147.5,89.5C 147.5,87.1667 147.5,84.8333 147.5,82.5 Z"/></g>
<g><path style="opacity:1" fill="#767e94" d="M 159.5,88.5 C 160.833,88.5 162.167,88.5 163.5,88.5C 163.263,89.791 163.596,90.791 164.5,91.5C 163.249,93.561 161.582,93.8943 159.5,92.5C 160.5,91.8333 161.5,91.1667 162.5,90.5C 161.398,89.8243 160.398,89.1577 159.5,88.5 Z"/></g>
</svg>
