<?xml version="1.0" encoding="UTF-8"?>
<!DOCTYPE svg PUBLIC "-//W3C//DTD SVG 1.1//EN" "http://www.w3.org/Graphics/SVG/1.1/DTD/svg11.dtd">
<svg xmlns="http://www.w3.org/2000/svg" version="1.1" width="175px" height="178px" style="shape-rendering:geometricPrecision; text-rendering:geometricPrecision; image-rendering:optimizeQuality; fill-rule:evenodd; clip-rule:evenodd" xmlns:xlink="http://www.w3.org/1999/xlink">
<g><path style="opacity:1" fill="#fcfdfd" d="M -0.5,-0.5 C 57.8333,-0.5 116.167,-0.5 174.5,-0.5C 174.5,58.8333 174.5,118.167 174.5,177.5C 116.167,177.5 57.8333,177.5 -0.5,177.5C -0.5,118.167 -0.5,58.8333 -0.5,-0.5 Z"/></g>
<g><path style="opacity:1" fill="#5aa751" d="M 81.5,38.5 C 82.492,45.9818 82.8254,53.6484 82.5,61.5C 82.1667,61.5 81.8333,61.5 81.5,61.5C 81.6663,54.4921 81.4996,47.4921 81,40.5C 79.871,42.1412 78.371,43.1412 76.5,43.5C 77.8333,41.5 79.5,39.8333 81.5,38.5 Z"/></g>
<g><path style="opacity:1" fill="#cee3cb" d="M 81.5,38.5 C 81.56,37.9569 81.8933,37.6236 82.5,37.5C 83.8204,45.6572 83.8204,53.6572 82.5,61.5C 82.8254,53.6484 82.492,45.9818 81.5,38.5 Z"/></g>
<g><path style="opacity:1" fill="#4cb6d0" d="M 86.5,39.5 C 85.5084,46.6476 85.175,53.9809 85.5,61.5C 84.1801,53.9902 84.1801,46.3235 85.5,38.5C 86.1067,38.6236 86.44,38.9569 86.5,39.5 Z"/></g>
<g><path style="opacity:1" fill="#3a9b31" d="M 81.5,61.5 C 77.7083,66.7502 74.7083,72.4168 72.5,78.5C 66.2793,81.3761 60.2793,84.7094 54.5,88.5C 53.5713,87.3112 53.238,85.9778 53.5,84.5C 53.2627,83.209 53.596,82.209 54.5,81.5C 56.2766,78.4954 57.2766,75.1621 57.5,71.5C 58.4598,66.9136 60.4598,62.9136 63.5,59.5C 64.9063,59.0269 65.573,58.0269 65.5,56.5C 66.9063,56.0269 67.573,55.0269 67.5,53.5C 69.7881,49.5442 72.7881,46.2109 76.5,43.5C 78.371,43.1412 79.871,42.1412 81,40.5C 81.4996,47.4921 81.6663,54.4921 81.5,61.5 Z"/></g>
<g><path style="opacity:1" fill="#0e91b7" d="M 86.5,39.5 C 101.823,51.6242 111.157,67.4576 114.5,87C 114.316,88.3756 113.649,89.2089 112.5,89.5C 106.208,85.5044 99.8745,81.5044 93.5,77.5C 91.8929,71.6192 89.2263,66.2859 85.5,61.5C 85.175,53.9809 85.5084,46.6476 86.5,39.5 Z"/></g>
<g><path style="opacity:1" fill="#80ba77" d="M 67.5,53.5 C 67.573,55.0269 66.9063,56.0269 65.5,56.5C 65.427,54.9731 66.0937,53.9731 67.5,53.5 Z"/></g>
<g><path style="opacity:1" fill="#81bb77" d="M 65.5,56.5 C 65.573,58.0269 64.9063,59.0269 63.5,59.5C 63.427,57.9731 64.0937,56.9731 65.5,56.5 Z"/></g>
<g><path style="opacity:1" fill="#6fb265" d="M 57.5,71.5 C 57.2766,75.1621 56.2766,78.4954 54.5,81.5C 54.7234,77.8379 55.7234,74.5046 57.5,71.5 Z"/></g>
<g><path style="opacity:1" fill="#d7d9c5" d="M 72.5,78.5 C 72.1667,79.1667 71.8333,79.8333 71.5,80.5C 66.9026,84.1417 61.9026,87.3084 56.5,90C 55.7476,90.6708 55.4142,91.5041 55.5,92.5C 54.2311,90.9161 53.2311,89.0828 52.5,87C 52.528,85.9302 52.8614,85.0968 53.5,84.5C 53.238,85.9778 53.5713,87.3112 54.5,88.5C 60.2793,84.7094 66.2793,81.3761 72.5,78.5 Z"/></g>
<g><path style="opacity:1" fill="#a55928" d="M 71.5,80.5 C 72.1667,80.5 72.8333,80.5 73.5,80.5C 80.8409,80.3337 88.1742,80.5003 95.5,81C 100.898,84.6978 106.565,87.8645 112.5,90.5C 112.53,91.4972 112.03,92.1639 111,92.5C 97.8038,97.3685 84.3038,98.7018 70.5,96.5C 68.4855,95.0762 66.1522,94.4095 63.5,94.5C 60.6592,94.4403 57.9925,93.7736 55.5,92.5C 55.4142,91.5041 55.7476,90.6708 56.5,90C 61.9026,87.3084 66.9026,84.1417 71.5,80.5 Z"/></g>
<g><path style="opacity:1" fill="#e0d8d2" d="M 93.5,77.5 C 99.8745,81.5044 106.208,85.5044 112.5,89.5C 112.5,89.8333 112.5,90.1667 112.5,90.5C 106.565,87.8645 100.898,84.6978 95.5,81C 88.1742,80.5003 80.8409,80.3337 73.5,80.5C 80.3954,80.1502 87.0621,79.1502 93.5,77.5 Z"/></g>
<g><path style="opacity:1" fill="#dcbdac" d="M 70.5,84.5 C 74.2571,84.2864 74.9238,85.2864 72.5,87.5C 75.2537,89.9976 74.9204,91.9976 71.5,93.5C 67.6499,92.3043 67.6499,91.1376 71.5,90C 69.3652,88.4443 69.0319,86.6109 70.5,84.5 Z"/></g>
<g><path style="opacity:1" fill="#d9b8a4" d="M 92.5,84.5 C 98.9339,84.0928 100.767,86.7594 98,92.5C 95.4082,93.9817 93.0749,93.6483 91,91.5C 89.1917,93.3959 87.025,93.8959 84.5,93C 88.2507,92.2386 88.4174,91.0719 85,89.5C 84.51,88.2068 84.3433,86.8734 84.5,85.5C 86.288,85.2148 87.9547,85.5481 89.5,86.5C 87.15,87.7739 87.3167,89.1073 90,90.5C 90.2359,88.1887 91.0693,86.1887 92.5,84.5 Z"/></g>
<g><path style="opacity:1" fill="#a45927" d="M 93.5,86.5 C 94.5,86.5 95.5,86.5 96.5,86.5C 96.5,88.1667 96.5,89.8333 96.5,91.5C 95.5,91.5 94.5,91.5 93.5,91.5C 93.5,89.8333 93.5,88.1667 93.5,86.5 Z"/></g>
<g><path style="opacity:1" fill="#ddbfae" d="M 78.5,85.5 C 79.5,85.5 80.5,85.5 81.5,85.5C 82.4492,88.2075 82.4492,90.8742 81.5,93.5C 79.8333,92.1667 78.1667,92.1667 76.5,93.5C 75.883,90.6668 76.5497,88.0002 78.5,85.5 Z"/></g>
<g><path style="opacity:1" fill="#bd8461" d="M 63.5,94.5 C 66.1522,94.4095 68.4855,95.0762 70.5,96.5C 67.8478,96.5905 65.5145,95.9238 63.5,94.5 Z"/></g>
<g><path style="opacity:1" fill="#a19694" d="M 21.5,112.5 C 20.4479,114.256 18.7812,114.923 16.5,114.5C 17.5521,112.744 19.2188,112.077 21.5,112.5 Z"/></g>
<g><path style="opacity:1" fill="#9e9392" d="M 88.5,112.5 C 90.288,112.215 91.9547,112.548 93.5,113.5C 92.6667,113.833 91.8333,114.167 91,114.5C 89.6244,114.316 88.7911,113.649 88.5,112.5 Z"/></g>
<g><path style="opacity:1" fill="#7b6a69" d="M 129.5,113.5 C 129.5,117.833 129.5,122.167 129.5,126.5C 128.2,124.777 127.533,122.61 127.5,120C 127.533,117.39 128.2,115.223 129.5,113.5 Z"/></g>
<g><path style="opacity:1" fill="#dfdbdb" d="M 156.5,126.5 C 156.826,122.116 156.492,117.783 155.5,113.5C 154.507,118.12 154.173,122.786 154.5,127.5C 152.703,127.065 150.703,127.065 148.5,127.5C 149.531,126.751 150.698,126.085 152,125.5C 152.827,121.459 152.66,117.459 151.5,113.5C 150.833,117.167 150.167,120.833 149.5,124.5C 148.534,122.604 148.201,120.604 148.5,118.5C 149.461,116.735 149.795,114.735 149.5,112.5C 152.167,112.5 154.833,112.5 157.5,112.5C 157.819,117.363 157.486,122.03 156.5,126.5 Z"/></g>
<g><path style="opacity:1" fill="#887b79" d="M 156.5,126.5 C 156.158,127.338 155.492,127.672 154.5,127.5C 154.173,122.786 154.507,118.12 155.5,113.5C 156.492,117.783 156.826,122.116 156.5,126.5 Z"/></g>
<g><path style="opacity:1" fill="#c4bebd" d="M 111.5,117.5 C 109.5,117.5 107.5,117.5 105.5,117.5C 106.301,115.958 106.634,114.292 106.5,112.5C 107.5,112.5 108.5,112.5 109.5,112.5C 109.64,114.124 108.973,115.29 107.5,116C 109.058,116.21 110.391,116.71 111.5,117.5 Z"/></g>
<g><path style="opacity:1" fill="#857675" d="M 81.5,126.5 C 81.1583,127.338 80.4916,127.672 79.5,127.5C 79.1734,122.786 79.5067,118.12 80.5,113.5C 81.4922,117.783 81.8256,122.116 81.5,126.5 Z"/></g>
<g><path style="opacity:1" fill="#dfdddc" d="M 21.5,112.5 C 22.4345,113.568 22.7678,114.901 22.5,116.5C 25.1967,115.37 27.8633,115.37 30.5,116.5C 30.5,117.5 30.5,118.5 30.5,119.5C 31.8333,119.5 33.1667,119.5 34.5,119.5C 34.5,121.167 34.5,122.833 34.5,124.5C 32.2188,124.077 30.5521,124.744 29.5,126.5C 27.6921,127.918 27.0254,129.918 27.5,132.5C 23.062,133.575 21.062,131.908 21.5,127.5C 19.5853,127.784 17.9187,127.451 16.5,126.5C 19.8499,126.665 23.1832,126.498 26.5,126C 27.6105,123.263 27.7772,120.429 27,117.5C 26.5034,119.81 26.3367,122.143 26.5,124.5C 25.1667,124.5 23.8333,124.5 22.5,124.5C 22.5,122.167 22.5,119.833 22.5,117.5C 20.5,117.5 18.5,117.5 16.5,117.5C 16.9175,116.778 17.5842,116.278 18.5,116C 17.5842,115.722 16.9175,115.222 16.5,114.5C 18.7812,114.923 20.4479,114.256 21.5,112.5 Z"/></g>
<g><path style="opacity:1" fill="#9b8f8e" d="M 46.5,124.5 C 45.6909,122.708 45.1909,120.708 45,118.5C 44.8091,120.708 44.3091,122.708 43.5,124.5C 42.8333,117.833 42.1667,117.833 41.5,124.5C 40.8333,122.5 40.1667,120.5 39.5,118.5C 41.0106,116.559 43.0106,116.059 45.5,117C 46.435,119.381 46.7683,121.881 46.5,124.5 Z"/></g>
<g><path style="opacity:1" fill="#e0dddd" d="M 65.5,116.5 C 68.0198,116.636 70.6865,116.302 73.5,115.5C 72.9644,118.698 73.631,121.365 75.5,123.5C 74.791,124.404 73.791,124.737 72.5,124.5C 71.8333,115.167 71.1667,115.167 70.5,124.5C 69.5,124.5 68.5,124.5 67.5,124.5C 68.0356,121.302 67.369,118.635 65.5,116.5 Z"/></g>
<g><path style="opacity:1" fill="#dddad9" d="M 124.5,117.5 C 121.417,118.066 118.417,118.066 115.5,117.5C 114.526,119.743 114.192,122.076 114.5,124.5C 113.5,124.5 112.5,124.5 111.5,124.5C 111.5,122.167 111.5,119.833 111.5,117.5C 112.309,119.292 112.809,121.292 113,123.5C 113.226,120.905 113.726,118.405 114.5,116C 118.001,115.904 121.334,116.404 124.5,117.5 Z"/></g>
<g><path style="opacity:1" fill="#cfcbca" d="M 132.5,117.5 C 134.607,116.532 136.941,116.198 139.5,116.5C 138.99,119.388 139.656,121.721 141.5,123.5C 140.791,124.404 139.791,124.737 138.5,124.5C 138.5,122.167 138.5,119.833 138.5,117.5C 136.5,117.5 134.5,117.5 132.5,117.5 Z"/></g>
<g><path style="opacity:1" fill="#8b7d7b" d="M 57.5,119.5 C 56.8333,120.167 56.1667,120.833 55.5,121.5C 55.2089,120.351 54.3756,119.684 53,119.5C 49.8757,121.284 50.3757,122.284 54.5,122.5C 53.3285,123.345 51.9952,124.011 50.5,124.5C 47.0783,118.744 48.745,116.244 55.5,117C 56.3805,117.708 57.0472,118.542 57.5,119.5 Z"/></g>
<g><path style="opacity:1" fill="#d7d2d1" d="M 129.5,113.5 C 128.2,115.223 127.533,117.39 127.5,120C 127.533,122.61 128.2,124.777 129.5,126.5C 125.538,127.151 121.205,127.485 116.5,127.5C 119.228,126.795 122.061,126.128 125,125.5C 125.722,122.739 125.555,120.073 124.5,117.5C 126.256,116.448 126.923,114.781 126.5,112.5C 127.791,112.263 128.791,112.596 129.5,113.5 Z"/></g>
<g><path style="opacity:1" fill="#7b6b6a" d="M 105.5,117.5 C 107.5,117.5 109.5,117.5 111.5,117.5C 111.5,119.833 111.5,122.167 111.5,124.5C 112.5,124.5 113.5,124.5 114.5,124.5C 114.192,122.076 114.526,119.743 115.5,117.5C 118.417,118.066 121.417,118.066 124.5,117.5C 125.555,120.073 125.722,122.739 125,125.5C 122.061,126.128 119.228,126.795 116.5,127.5C 111.549,126.772 106.549,126.272 101.5,126C 100.202,121.882 100.202,117.715 101.5,113.5C 102.167,117.167 102.833,120.833 103.5,124.5C 104.275,122.157 104.942,119.823 105.5,117.5 Z"/></g>
<g><path style="opacity:1" fill="#ecebec" d="M 119.5,119.5 C 120.833,119.5 122.167,119.5 123.5,119.5C 123.5,121.167 123.5,122.833 123.5,124.5C 121.167,124.5 118.833,124.5 116.5,124.5C 116.5,123.167 116.5,121.833 116.5,120.5C 117.791,120.737 118.791,120.404 119.5,119.5 Z"/></g>
<g><path style="opacity:1" fill="#e7e6e6" d="M 106.5,119.5 C 107.5,119.5 108.5,119.5 109.5,119.5C 109.5,121.167 109.5,122.833 109.5,124.5C 108.5,124.5 107.5,124.5 106.5,124.5C 106.5,122.833 106.5,121.167 106.5,119.5 Z"/></g>
<g><path style="opacity:1" fill="#d6d2d1" d="M 96.5,117.5 C 96.5,119.833 96.5,122.167 96.5,124.5C 93.1667,124.5 89.8333,124.5 86.5,124.5C 86.8432,122.517 86.1765,121.183 84.5,120.5C 85.209,119.596 86.209,119.263 87.5,119.5C 87.5,120.833 87.5,122.167 87.5,123.5C 90.1667,123.5 92.8333,123.5 95.5,123.5C 95.2053,121.265 95.5386,119.265 96.5,117.5 Z"/></g>
<g><path style="opacity:1" fill="#80706f" d="M 16.5,117.5 C 18.5,117.5 20.5,117.5 22.5,117.5C 22.5,119.833 22.5,122.167 22.5,124.5C 23.8333,124.5 25.1667,124.5 26.5,124.5C 26.3367,122.143 26.5034,119.81 27,117.5C 27.7772,120.429 27.6105,123.263 26.5,126C 23.1832,126.498 19.8499,126.665 16.5,126.5C 15.2248,123.396 15.2248,120.396 16.5,117.5 Z"/></g>
<g><path style="opacity:1" fill="#e2dfde" d="M 17.5,119.5 C 18.5,119.5 19.5,119.5 20.5,119.5C 20.5,121.167 20.5,122.833 20.5,124.5C 19.5,124.5 18.5,124.5 17.5,124.5C 17.5,122.833 17.5,121.167 17.5,119.5 Z"/></g>
<g><path style="opacity:1" fill="#867776" d="M 30.5,116.5 C 33.3126,116.025 35.3126,117.025 36.5,119.5C 36.702,121.95 36.3686,124.283 35.5,126.5C 33.5,126.5 31.5,126.5 29.5,126.5C 30.5521,124.744 32.2188,124.077 34.5,124.5C 34.5,122.833 34.5,121.167 34.5,119.5C 33.1667,119.5 31.8333,119.5 30.5,119.5C 30.5,118.5 30.5,117.5 30.5,116.5 Z"/></g>
<g><path style="opacity:1" fill="#d2cdcd" d="M 39.5,118.5 C 39.5,121.167 39.5,123.833 39.5,126.5C 38.1667,126.5 36.8333,126.5 35.5,126.5C 36.3686,124.283 36.702,121.95 36.5,119.5C 37.609,119.443 38.609,119.11 39.5,118.5 Z"/></g>
<g><path style="opacity:1" fill="#7b6b69" d="M 75.5,113.5 C 76.7943,115.048 77.4609,117.048 77.5,119.5C 77.4677,121.759 77.1344,123.925 76.5,126C 66.172,126.5 55.8387,126.666 45.5,126.5C 45.3713,128.216 45.038,129.883 44.5,131.5C 43.0222,131.762 41.6888,131.429 40.5,130.5C 41.325,129.614 42.325,129.281 43.5,129.5C 43.5,128.5 43.5,127.5 43.5,126.5C 42.1667,126.5 40.8333,126.5 39.5,126.5C 39.5,123.833 39.5,121.167 39.5,118.5C 40.1667,120.5 40.8333,122.5 41.5,124.5C 42.1667,124.5 42.8333,124.5 43.5,124.5C 44.3091,122.708 44.8091,120.708 45,118.5C 45.1909,120.708 45.6909,122.708 46.5,124.5C 47.8333,124.5 49.1667,124.5 50.5,124.5C 51.9952,124.011 53.3285,123.345 54.5,122.5C 55.1667,122.5 55.5,122.167 55.5,121.5C 56.1667,120.833 56.8333,120.167 57.5,119.5C 57.7035,121.39 57.0368,122.89 55.5,124C 57.1341,124.494 58.8008,124.66 60.5,124.5C 61.1667,115.167 61.8333,115.167 62.5,124.5C 63.5,124.5 64.5,124.5 65.5,124.5C 65.5,121.833 65.5,119.167 65.5,116.5C 67.369,118.635 68.0356,121.302 67.5,124.5C 68.5,124.5 69.5,124.5 70.5,124.5C 71.1667,115.167 71.8333,115.167 72.5,124.5C 73.791,124.737 74.791,124.404 75.5,123.5C 75.5,120.167 75.5,116.833 75.5,113.5 Z"/></g>
<g><path style="opacity:1" fill="#eeecec" d="M 43.5,124.5 C 42.8333,124.5 42.1667,124.5 41.5,124.5C 42.1667,117.833 42.8333,117.833 43.5,124.5 Z"/></g>
<g><path style="opacity:1" fill="#dfdcdc" d="M 55.5,121.5 C 55.5,122.167 55.1667,122.5 54.5,122.5C 50.3757,122.284 49.8757,121.284 53,119.5C 54.3756,119.684 55.2089,120.351 55.5,121.5 Z"/></g>
<g><path style="opacity:1" fill="#7f6f6d" d="M 96.5,117.5 C 98.8561,119.683 99.1895,122.35 97.5,125.5C 93.5411,126.66 89.5411,126.827 85.5,126C 84.5939,124.301 84.2606,122.467 84.5,120.5C 86.1765,121.183 86.8432,122.517 86.5,124.5C 89.8333,124.5 93.1667,124.5 96.5,124.5C 96.5,122.167 96.5,119.833 96.5,117.5 Z"/></g>
<g><path style="opacity:1" fill="#7b6b6a" d="M 148.5,127.5 C 145.48,128.931 142.647,128.597 140,126.5C 138.48,127.697 137.313,129.197 136.5,131C 135.056,131.781 133.723,131.614 132.5,130.5C 137.939,128.286 137.772,126.62 132,125.5C 131.278,122.739 131.445,120.073 132.5,117.5C 134.5,117.5 136.5,117.5 138.5,117.5C 138.5,119.833 138.5,122.167 138.5,124.5C 139.791,124.737 140.791,124.404 141.5,123.5C 140.79,120.07 141.957,117.737 145,116.5C 146.699,116.387 147.866,117.053 148.5,118.5C 148.201,120.604 148.534,122.604 149.5,124.5C 150.167,120.833 150.833,117.167 151.5,113.5C 152.66,117.459 152.827,121.459 152,125.5C 150.698,126.085 149.531,126.751 148.5,127.5 Z"/></g>
<g><path style="opacity:1" fill="#e1dedd" d="M 133.5,118.5 C 134.5,118.5 135.5,118.5 136.5,118.5C 136.5,120.5 136.5,122.5 136.5,124.5C 135.5,124.5 134.5,124.5 133.5,124.5C 133.5,122.5 133.5,120.5 133.5,118.5 Z"/></g>
<g><path style="opacity:1" fill="#ecebeb" d="M 143.5,119.5 C 144.5,119.5 145.5,119.5 146.5,119.5C 146.5,121.833 146.5,124.167 146.5,126.5C 145.5,126.5 144.5,126.5 143.5,126.5C 143.5,124.167 143.5,121.833 143.5,119.5 Z"/></g>
<g><path style="opacity:1" fill="#d1cccb" d="M 75.5,113.5 C 77.6074,112.532 79.9407,112.198 82.5,112.5C 82.8195,117.363 82.4861,122.03 81.5,126.5C 81.8256,122.116 81.4922,117.783 80.5,113.5C 79.5067,118.12 79.1734,122.786 79.5,127.5C 68.7093,127.443 57.7093,127.443 46.5,127.5C 46.7709,129.38 46.1042,130.713 44.5,131.5C 45.038,129.883 45.3713,128.216 45.5,126.5C 55.8387,126.666 66.172,126.5 76.5,126C 77.1344,123.925 77.4677,121.759 77.5,119.5C 77.4609,117.048 76.7943,115.048 75.5,113.5 Z"/></g>
<g><path style="opacity:1" fill="#b0a6a5" d="M 58.5,134.5 C 59.5,134.5 60.5,134.5 61.5,134.5C 61.5,135.5 61.5,136.5 61.5,137.5C 60.5,137.5 59.5,137.5 58.5,137.5C 58.5,136.5 58.5,135.5 58.5,134.5 Z"/></g>
<g><path style="opacity:1" fill="#b3a9a8" d="M 56.5,146.5 C 55.6773,143.023 55.1773,139.356 55,135.5C 54.7679,136.737 54.2679,137.737 53.5,138.5C 53.5,137.167 53.5,135.833 53.5,134.5C 54.5,134.5 55.5,134.5 56.5,134.5C 56.5,138.5 56.5,142.5 56.5,146.5 Z"/></g>
<g><path style="opacity:1" fill="#aea6a4" d="M 74.5,139.5 C 73.8999,138.1 72.8999,137.1 71.5,136.5C 71.6107,135.883 71.944,135.383 72.5,135C 74.5,134.333 76.5,134.333 78.5,135C 78.9574,135.414 79.2907,135.914 79.5,136.5C 77.3449,137.001 75.6782,138.001 74.5,139.5 Z"/></g>
<g><path style="opacity:1" fill="#dfdcdd" d="M 121.5,143.5 C 121.5,145.167 121.5,146.833 121.5,148.5C 120.833,148.5 120.167,148.5 119.5,148.5C 118.954,144.172 118.287,139.838 117.5,135.5C 116.614,136.325 116.281,137.325 116.5,138.5C 115.167,138.5 113.833,138.5 112.5,138.5C 113.209,137.596 114.209,137.263 115.5,137.5C 115.5,136.5 115.5,135.5 115.5,134.5C 116.833,134.5 118.167,134.5 119.5,134.5C 119.335,137.85 119.502,141.183 120,144.5C 120.383,143.944 120.883,143.611 121.5,143.5 Z"/></g>
<g><path style="opacity:1" fill="#d8d4d4" d="M 102.5,138.5 C 101.432,139.434 100.099,139.768 98.5,139.5C 98.5,142.5 98.5,145.5 98.5,148.5C 97.8333,148.5 97.1667,148.5 96.5,148.5C 96.5,147.833 96.5,147.167 96.5,146.5C 97.4731,144.052 97.8064,141.385 97.5,138.5C 99.1667,138.5 100.833,138.5 102.5,138.5 Z"/></g>
<g><path style="opacity:1" fill="#7a6967" d="M 102.5,138.5 C 103.822,138.33 104.989,138.663 106,139.5C 106.27,142.224 106.77,144.891 107.5,147.5C 106.998,148.521 106.332,148.688 105.5,148C 104.565,145.619 104.232,143.119 104.5,140.5C 103.178,140.33 102.011,140.663 101,141.5C 101.03,144.361 100.197,146.695 98.5,148.5C 98.5,145.5 98.5,142.5 98.5,139.5C 100.099,139.768 101.432,139.434 102.5,138.5 Z"/></g>
<g><path style="opacity:1" fill="#9e9190" d="M 59.5,138.5 C 61.4023,141.337 62.069,144.671 61.5,148.5C 60.5,148.5 59.5,148.5 58.5,148.5C 58.2529,145.061 58.5863,141.728 59.5,138.5 Z"/></g>
<g><path style="opacity:1" fill="#746361" d="M 82.5,136.5 C 85.712,137.958 86.3787,140.292 84.5,143.5C 84.7896,145.044 85.4563,146.377 86.5,147.5C 85.3112,148.429 83.9778,148.762 82.5,148.5C 82.1373,144.383 82.1373,140.383 82.5,136.5 Z"/></g>
<g><path style="opacity:1" fill="#756462" d="M 131.5,138.5 C 133.288,138.215 134.955,138.548 136.5,139.5C 135.675,140.386 134.675,140.719 133.5,140.5C 133.813,143.247 133.48,145.914 132.5,148.5C 131.513,145.232 131.18,141.898 131.5,138.5 Z"/></g>
<g><path style="opacity:1" fill="#897b79" d="M 96.5,146.5 C 96.5,147.167 96.5,147.833 96.5,148.5C 93.8127,148.664 91.146,148.497 88.5,148C 87.1667,146.333 87.1667,144.667 88.5,143C 95.0784,142.115 95.0784,140.948 88.5,139.5C 94.8034,137.464 97.47,139.797 96.5,146.5 Z"/></g>
<g><path style="opacity:1" fill="#7a6968" d="M 119.5,148.5 C 112.019,150.506 108.853,147.839 110,140.5C 110.708,139.619 111.542,138.953 112.5,138.5C 113.833,138.5 115.167,138.5 116.5,138.5C 116.281,137.325 116.614,136.325 117.5,135.5C 118.287,139.838 118.954,144.172 119.5,148.5 Z"/></g>
<g><path style="opacity:1" fill="#ebeaea" d="M 112.5,140.5 C 113.833,140.5 115.167,140.5 116.5,140.5C 116.66,142.199 116.494,143.866 116,145.5C 111.633,146.575 110.466,144.908 112.5,140.5 Z"/></g>
<g><path style="opacity:1" fill="#72615f" d="M 146.5,135.5 C 146.882,140.28 146.549,143.614 145.5,145.5C 145.5,143.833 145.5,142.167 145.5,140.5C 143.833,140.5 142.167,140.5 140.5,140.5C 140.205,142.735 140.539,144.735 141.5,146.5C 141.158,147.338 140.492,147.672 139.5,147.5C 136.804,141.361 138.804,138.361 145.5,138.5C 145.263,137.209 145.596,136.209 146.5,135.5 Z"/></g>
<g><path style="opacity:1" fill="#dddad9" d="M 145.5,145.5 C 144.292,146.234 142.959,146.567 141.5,146.5C 140.539,144.735 140.205,142.735 140.5,140.5C 142.167,140.5 143.833,140.5 145.5,140.5C 145.5,142.167 145.5,143.833 145.5,145.5 Z"/></g>
<g><path style="opacity:1" fill="#887978" d="M 150.5,138.5 C 156.697,138.325 157.363,139.325 152.5,141.5C 154.307,142.395 155.64,143.728 156.5,145.5C 156.392,146.442 156.059,147.275 155.5,148C 153.421,148.808 151.421,148.641 149.5,147.5C 151.167,146.833 152.833,146.167 154.5,145.5C 150.432,144.483 149.099,142.15 150.5,138.5 Z"/></g>
<g><path style="opacity:1" fill="#847574" d="M 21.5,140.5 C 25.4372,147.249 23.4372,149.916 15.5,148.5C 16.9179,146.692 18.9179,146.025 21.5,146.5C 21.3737,143.405 19.707,141.572 16.5,141C 15.0202,135.812 17.0202,133.812 22.5,135C 22.9574,135.414 23.2907,135.914 23.5,136.5C 21.8333,137.167 20.1667,137.833 18.5,138.5C 19.0047,139.919 20.0047,140.585 21.5,140.5 Z"/></g>
<g><path style="opacity:1" fill="#e1dfde" d="M 26.5,138.5 C 27.6782,139.999 29.3449,140.999 31.5,141.5C 29.9547,142.452 28.288,142.785 26.5,142.5C 26.5,144.5 26.5,146.5 26.5,148.5C 29.6981,149.036 32.3647,148.369 34.5,146.5C 35.4731,144.052 35.8064,141.385 35.5,138.5C 36.8333,138.5 38.1667,138.5 39.5,138.5C 38.9898,141.388 39.6565,143.721 41.5,145.5C 40.791,146.404 39.791,146.737 38.5,146.5C 38.8076,144.076 38.4742,141.743 37.5,139.5C 36.5159,142.428 36.1826,145.428 36.5,148.5C 39.5,148.5 42.5,148.5 45.5,148.5C 35.4046,149.491 25.4046,149.491 15.5,148.5C 23.4372,149.916 25.4372,147.249 21.5,140.5C 22.5832,140.539 23.5832,140.873 24.5,141.5C 25.1757,140.398 25.8423,139.398 26.5,138.5 Z"/></g>
<g><path style="opacity:1" fill="#8b7c7b" d="M 26.5,138.5 C 28.5273,138.338 30.5273,138.505 32.5,139C 33.1233,141.607 33.79,144.107 34.5,146.5C 32.3647,148.369 29.6981,149.036 26.5,148.5C 26.5,146.5 26.5,144.5 26.5,142.5C 28.288,142.785 29.9547,142.452 31.5,141.5C 29.3449,140.999 27.6782,139.999 26.5,138.5 Z"/></g>
<g><path style="opacity:1" fill="#e4e1e0" d="M 28.5,144.5 C 30.337,144.639 30.6704,145.306 29.5,146.5C 28.7025,146.043 28.3691,145.376 28.5,144.5 Z"/></g>
<g><path style="opacity:1" fill="#847573" d="M 41.5,145.5 C 42.1646,143.631 42.8313,141.631 43.5,139.5C 44.3525,142.478 45.0192,145.478 45.5,148.5C 42.5,148.5 39.5,148.5 36.5,148.5C 36.1826,145.428 36.5159,142.428 37.5,139.5C 38.4742,141.743 38.8076,144.076 38.5,146.5C 39.791,146.737 40.791,146.404 41.5,145.5 Z"/></g>
<g><path style="opacity:1" fill="#857674" d="M 56.5,146.5 C 55.6661,147.748 54.3328,148.415 52.5,148.5C 47.001,148.487 45.1677,145.82 47,140.5C 48.7889,138.771 50.9556,138.104 53.5,138.5C 54.2679,137.737 54.7679,136.737 55,135.5C 55.1773,139.356 55.6773,143.023 56.5,146.5 Z"/></g>
<g><path style="opacity:1" fill="#e7e5e5" d="M 49.5,140.5 C 50.8333,140.5 52.1667,140.5 53.5,140.5C 53.5,142.5 53.5,144.5 53.5,146.5C 52.1667,146.5 50.8333,146.5 49.5,146.5C 49.5,144.5 49.5,142.5 49.5,140.5 Z"/></g>
<g><path style="opacity:1" fill="#7d6d6c" d="M 71.5,136.5 C 72.8999,137.1 73.8999,138.1 74.5,139.5C 75.8484,140.601 77.3484,141.601 79,142.5C 79.445,148.198 76.945,149.865 71.5,147.5C 73.396,146.534 75.396,146.201 77.5,146.5C 77.719,145.325 77.3857,144.325 76.5,143.5C 72.8523,142.527 71.1857,140.193 71.5,136.5 Z"/></g>
<g><path style="opacity:1" fill="#867876" d="M 121.5,148.5 C 121.5,146.833 121.5,145.167 121.5,143.5C 123.042,142.837 124.709,142.17 126.5,141.5C 124.833,140.833 123.167,140.167 121.5,139.5C 123.421,138.359 125.421,138.192 127.5,139C 128.211,141.796 128.878,144.63 129.5,147.5C 126.914,148.48 124.247,148.813 121.5,148.5 Z"/></g>
<g><path style="opacity:1" fill="#d8d4d3" d="M 122.5,144.5 C 123.978,144.238 125.311,144.571 126.5,145.5C 125.833,145.833 125.167,146.167 124.5,146.5C 123.287,146.253 122.62,145.586 122.5,144.5 Z"/></g>
<g><path style="opacity:1" fill="#938583" d="M 146.5,135.5 C 147.485,139.634 147.818,143.968 147.5,148.5C 144.615,148.806 141.948,148.473 139.5,147.5C 140.492,147.672 141.158,147.338 141.5,146.5C 142.959,146.567 144.292,146.234 145.5,145.5C 146.549,143.614 146.882,140.28 146.5,135.5 Z"/></g>
</svg>
