<?xml version="1.0" encoding="UTF-8"?>
<!DOCTYPE svg PUBLIC "-//W3C//DTD SVG 1.1//EN" "http://www.w3.org/Graphics/SVG/1.1/DTD/svg11.dtd">
<svg xmlns="http://www.w3.org/2000/svg" version="1.1" width="262px" height="126px" style="shape-rendering:geometricPrecision; text-rendering:geometricPrecision; image-rendering:optimizeQuality; fill-rule:evenodd; clip-rule:evenodd" xmlns:xlink="http://www.w3.org/1999/xlink">
<g><path style="opacity:1" fill="#fdfefd" d="M -0.5,-0.5 C 86.8333,-0.5 174.167,-0.5 261.5,-0.5C 261.5,41.5 261.5,83.5 261.5,125.5C 174.167,125.5 86.8333,125.5 -0.5,125.5C -0.5,83.5 -0.5,41.5 -0.5,-0.5 Z"/></g>
<g><path style="opacity:1" fill="#26875b" d="M 73.5,38.5 C 68.8215,38.3342 64.1548,38.5008 59.5,39C 58.6195,39.7083 57.9528,40.5416 57.5,41.5C 56.8333,41.5 56.1667,41.5 55.5,41.5C 56.2899,40.2058 57.2899,39.0391 58.5,38C 61.2833,37.0371 63.95,35.8704 66.5,34.5C 69.3343,35.0103 71.6677,36.3436 73.5,38.5 Z"/></g>
<g><path style="opacity:1" fill="#078247" d="M 73.5,38.5 C 75.7488,39.0798 77.4154,40.4131 78.5,42.5C 71.557,41.5733 64.557,41.24 57.5,41.5C 57.9528,40.5416 58.6195,39.7083 59.5,39C 64.1548,38.5008 68.8215,38.3342 73.5,38.5 Z"/></g>
<g><path style="opacity:1" fill="#8cc091" d="M 55.5,41.5 C 54.8333,43.1667 54.1667,44.8333 53.5,46.5C 52.1416,44.2572 52.8083,42.5905 55.5,41.5 Z"/></g>
<g><path style="opacity:1" fill="#349342" d="M 55.5,41.5 C 56.1667,41.5 56.8333,41.5 57.5,41.5C 64.557,41.24 71.557,41.5733 78.5,42.5C 81.1667,44.1667 81.1667,45.8333 78.5,47.5C 78.0831,46.8761 77.4164,46.5427 76.5,46.5C 75.2867,46.7472 74.62,47.4138 74.5,48.5C 72.3858,46.2129 69.8858,44.5463 67,43.5C 64.4582,44.2054 62.2916,45.5387 60.5,47.5C 58.8333,46.1667 57.1667,46.1667 55.5,47.5C 54.8333,47.1667 54.1667,46.8333 53.5,46.5C 54.1667,44.8333 54.8333,43.1667 55.5,41.5 Z"/></g>
<g><path style="opacity:1" fill="#5ca930" d="M 78.5,47.5 C 78.0254,53.5479 76.692,53.8812 74.5,48.5C 74.62,47.4138 75.2867,46.7472 76.5,46.5C 77.4164,46.5427 78.0831,46.8761 78.5,47.5 Z"/></g>
<g><path style="opacity:1" fill="#69b037" d="M 60.5,47.5 C 59.3199,49.0145 58.3199,50.6812 57.5,52.5C 56.0499,51.1502 55.3832,49.4835 55.5,47.5C 57.1667,46.1667 58.8333,46.1667 60.5,47.5 Z"/></g>
<g><path style="opacity:1" fill="#678d82" d="M 218.5,50.5 C 222.584,49.9453 223.251,50.9453 220.5,53.5C 224.11,55.7124 223.443,56.7124 218.5,56.5C 218.5,54.5 218.5,52.5 218.5,50.5 Z"/></g>
<g><path style="opacity:1" fill="#bbcac6" d="M 129.5,58.5 C 122.5,58.5 115.5,58.5 108.5,58.5C 107.507,66.6499 107.174,74.9832 107.5,83.5C 106.343,75.0099 106.176,66.3433 107,57.5C 114.086,56.3544 121.253,56.1877 128.5,57C 129.056,57.3826 129.389,57.8826 129.5,58.5 Z"/></g>
<g><path style="opacity:1" fill="#cfd9d7" d="M 190.5,55.5 C 191.491,61.979 191.824,68.6457 191.5,75.5C 192.5,75.5 193.5,75.5 194.5,75.5C 194.198,72.9407 194.532,70.6074 195.5,68.5C 195.5,71.1667 195.5,73.8333 195.5,76.5C 193.585,76.7845 191.919,76.4511 190.5,75.5C 190.5,68.8333 190.5,62.1667 190.5,55.5 Z"/></g>
<g><path style="opacity:1" fill="#2a5f4e" d="M 228.5,55.5 C 229.5,55.5 230.5,55.5 231.5,55.5C 231.825,63.3516 231.492,71.0182 230.5,78.5C 225.821,78.6658 221.155,78.4992 216.5,78C 220.356,77.8227 224.023,77.3227 227.5,76.5C 228.491,69.6866 228.825,62.6866 228.5,55.5 Z"/></g>
<g><path style="opacity:1" fill="#6c8e82" d="M 190.5,55.5 C 190.5,62.1667 190.5,68.8333 190.5,75.5C 189.672,69.3466 189.172,63.0133 189,56.5C 188.828,63.0133 188.328,69.3466 187.5,75.5C 187.5,68.8333 187.5,62.1667 187.5,55.5C 188.5,55.5 189.5,55.5 190.5,55.5 Z"/></g>
<g><path style="opacity:1" fill="#b5c5c0" d="M 228.5,55.5 C 228.825,62.6866 228.491,69.6866 227.5,76.5C 223.5,76.5 219.5,76.5 215.5,76.5C 219.298,75.5166 223.298,75.1832 227.5,75.5C 227.176,68.6457 227.509,61.979 228.5,55.5 Z"/></g>
<g><path style="opacity:1" fill="#447061" d="M 235.5,55.5 C 236.5,55.5 237.5,55.5 238.5,55.5C 238.5,63.5 238.5,71.5 238.5,79.5C 237.5,79.5 236.5,79.5 235.5,79.5C 235.5,71.5 235.5,63.5 235.5,55.5 Z"/></g>
<g><path style="opacity:1" fill="#3f6b5c" d="M 219.5,58.5 C 220.5,58.5 221.5,58.5 222.5,58.5C 222.5,63.5 222.5,68.5 222.5,73.5C 221.5,73.5 220.5,73.5 219.5,73.5C 219.5,68.5 219.5,63.5 219.5,58.5 Z"/></g>
<g><path style="opacity:1" fill="#698d82" d="M 100.5,58.5 C 101.493,66.6499 101.826,74.9832 101.5,83.5C 98.6146,83.8064 95.9479,83.4731 93.5,82.5C 95.8333,82.5 98.1667,82.5 100.5,82.5C 100.5,74.5 100.5,66.5 100.5,58.5 Z"/></g>
<g><path style="opacity:1" fill="#a5b9b3" d="M 113.5,61.5 C 118.032,61.1818 122.366,61.5151 126.5,62.5C 122.5,62.5 118.5,62.5 114.5,62.5C 114.5,64.5 114.5,66.5 114.5,68.5C 118.5,68.5 122.5,68.5 126.5,68.5C 122.366,69.4849 118.032,69.8182 113.5,69.5C 113.5,66.8333 113.5,64.1667 113.5,61.5 Z"/></g>
<g><path style="opacity:1" fill="#1a5242" d="M 61.5,64.5 C 59.5242,62.9891 57.1909,62.1558 54.5,62C 50.5138,61.5012 46.5138,61.3345 42.5,61.5C 42.2436,63.7925 42.5769,65.9592 43.5,68C 46.146,68.4974 48.8127,68.6641 51.5,68.5C 56.6106,68.9809 61.2773,70.6476 65.5,73.5C 65.702,75.9496 65.3686,78.283 64.5,80.5C 63.1667,81.1667 61.8333,81.8333 60.5,82.5C 52.7989,82.6911 45.1322,82.3577 37.5,81.5C 35.7868,80.3646 35.1201,78.698 35.5,76.5C 36.791,76.2627 37.791,76.596 38.5,77.5C 42.2227,78.9967 46.2227,79.6633 50.5,79.5C 53.3555,79.4975 56.0221,79.1641 58.5,78.5C 59.8009,77.1155 59.8009,75.6155 58.5,74C 53.882,73.006 49.2153,72.506 44.5,72.5C 41.7845,71.3659 39.1178,70.0325 36.5,68.5C 34.8005,64.9274 35.4672,61.7607 38.5,59C 47.1951,57.0913 55.8618,57.258 64.5,59.5C 64.5,61.1667 64.5,62.8333 64.5,64.5C 63.5,64.5 62.5,64.5 61.5,64.5 Z"/></g>
<g><path style="opacity:1" fill="#d5dfdc" d="M 61.5,64.5 C 55.5362,63.6932 49.5362,63.3599 43.5,63.5C 43.33,64.8221 43.6634,65.9887 44.5,67C 47.0356,67.1862 49.369,67.6862 51.5,68.5C 48.8127,68.6641 46.146,68.4974 43.5,68C 42.5769,65.9592 42.2436,63.7925 42.5,61.5C 46.5138,61.3345 50.5138,61.5012 54.5,62C 57.1909,62.1558 59.5242,62.9891 61.5,64.5 Z"/></g>
<g><path style="opacity:1" fill="#cdd8d5" d="M 79.5,58.5 C 76.8333,58.5 74.1667,58.5 71.5,58.5C 70.5073,66.6499 70.1739,74.9832 70.5,83.5C 69.507,75.0161 69.1736,66.3494 69.5,57.5C 73.0419,57.1872 76.3752,57.5206 79.5,58.5 Z"/></g>
<g><path style="opacity:1" fill="#c8d3d0" d="M 186.5,75.5 C 183.713,76.4767 180.713,76.81 177.5,76.5C 177.5,73.5 177.5,70.5 177.5,67.5C 174.5,67.5 171.5,67.5 168.5,67.5C 169.492,65.9735 170.992,65.3068 173,65.5C 174.561,65.6032 176.061,65.9366 177.5,66.5C 178.484,69.4281 178.817,72.4281 178.5,75.5C 181.167,75.5 183.833,75.5 186.5,75.5 Z"/></g>
<g><path style="opacity:1" fill="#cfdad7" d="M 101.5,83.5 C 101.826,74.9832 101.493,66.6499 100.5,58.5C 99.1667,58.5 97.8333,58.5 96.5,58.5C 96.1474,64.7355 95.1474,70.7355 93.5,76.5C 92.5,75.1667 91.5,73.8333 90.5,72.5C 91.5832,72.5394 92.5832,72.8728 93.5,73.5C 94.4954,67.8722 94.8288,62.2055 94.5,56.5C 97.1667,56.5 99.8333,56.5 102.5,56.5C 102.827,65.6822 102.493,74.6822 101.5,83.5 Z"/></g>
<g><path style="opacity:1" fill="#33685a" d="M 113.5,61.5 C 113.5,64.1667 113.5,66.8333 113.5,69.5C 118.032,69.8182 122.366,69.4849 126.5,68.5C 127.391,67.8902 128.391,67.5569 129.5,67.5C 129.842,68.3382 130.508,68.6716 131.5,68.5C 131.389,69.1174 131.056,69.6174 130.5,70C 131.416,70.2784 132.082,70.7784 132.5,71.5C 131.127,71.3433 129.793,71.51 128.5,72C 129.056,72.3826 129.389,72.8826 129.5,73.5C 128.833,73.5 128.167,73.5 127.5,73.5C 123.03,72.5139 118.363,72.1805 113.5,72.5C 117.647,71.6753 121.981,71.1753 126.5,71C 121.845,70.5008 117.179,70.3342 112.5,70.5C 112.19,67.2869 112.523,64.2869 113.5,61.5 Z"/></g>
<g><path style="opacity:1" fill="#acc0bb" d="M 36.5,68.5 C 39.1178,70.0325 41.7845,71.3659 44.5,72.5C 42.0733,72.477 39.74,71.977 37.5,71C 36.7476,70.3292 36.4142,69.4959 36.5,68.5 Z"/></g>
<g><path style="opacity:1" fill="#6d9186" d="M 167.5,68.5 C 166.949,72.9732 166.283,77.3066 165.5,81.5C 165.5,77.8333 165.5,74.1667 165.5,70.5C 165.833,69.5 166.5,68.8333 167.5,68.5 Z"/></g>
<g><path style="opacity:1" fill="#60867c" d="M 71.5,58.5 C 71.5,66.5 71.5,74.5 71.5,82.5C 73.1667,82.5 74.8333,82.5 76.5,82.5C 74.7354,83.4614 72.7354,83.7947 70.5,83.5C 70.1739,74.9832 70.5073,66.6499 71.5,58.5 Z"/></g>
<g><path style="opacity:1" fill="#094836" d="M 108.5,58.5 C 115.5,58.5 122.5,58.5 129.5,58.5C 134.335,59.1605 136.168,61.8271 135,66.5C 134.184,67.8228 133.017,68.4894 131.5,68.5C 130.508,68.6716 129.842,68.3382 129.5,67.5C 130.084,64.715 129.084,63.0483 126.5,62.5C 122.366,61.5151 118.032,61.1818 113.5,61.5C 112.523,64.2869 112.19,67.2869 112.5,70.5C 117.179,70.3342 121.845,70.5008 126.5,71C 121.981,71.1753 117.647,71.6753 113.5,72.5C 113.198,75.0593 113.532,77.3926 114.5,79.5C 119.179,79.6658 123.845,79.4992 128.5,79C 130.632,77.3796 130.965,75.5463 129.5,73.5C 129.389,72.8826 129.056,72.3826 128.5,72C 129.793,71.51 131.127,71.3433 132.5,71.5C 136.254,72.8276 137.421,75.4942 136,79.5C 134.871,81.1412 133.371,82.1412 131.5,82.5C 123.833,82.5 116.167,82.5 108.5,82.5C 108.5,74.5 108.5,66.5 108.5,58.5 Z"/></g>
<g><path style="opacity:1" fill="#adbfba" d="M 113.5,72.5 C 118.363,72.1805 123.03,72.5139 127.5,73.5C 123.167,73.5 118.833,73.5 114.5,73.5C 114.5,75.5 114.5,77.5 114.5,79.5C 113.532,77.3926 113.198,75.0593 113.5,72.5 Z"/></g>
<g><path style="opacity:1" fill="#f6f8f7" d="M 126.5,62.5 C 129.084,63.0483 130.084,64.715 129.5,67.5C 128.391,67.5569 127.391,67.8902 126.5,68.5C 122.5,68.5 118.5,68.5 114.5,68.5C 114.5,66.5 114.5,64.5 114.5,62.5C 118.5,62.5 122.5,62.5 126.5,62.5 Z"/></g>
<g><path style="opacity:1" fill="#f3f6f5" d="M 127.5,73.5 C 128.167,73.5 128.833,73.5 129.5,73.5C 130.965,75.5463 130.632,77.3796 128.5,79C 123.845,79.4992 119.179,79.6658 114.5,79.5C 114.5,77.5 114.5,75.5 114.5,73.5C 118.833,73.5 123.167,73.5 127.5,73.5 Z"/></g>
<g><path style="opacity:1" fill="#bac9c5" d="M 65.5,73.5 C 66.1524,74.4486 66.4857,75.6153 66.5,77C 66.3917,78.6811 65.7251,79.8478 64.5,80.5C 65.3686,78.283 65.702,75.9496 65.5,73.5 Z"/></g>
<g><path style="opacity:1" fill="#0c4a39" d="M 71.5,58.5 C 74.1667,58.5 76.8333,58.5 79.5,58.5C 83.1667,63.1667 86.8333,67.8333 90.5,72.5C 91.5,73.8333 92.5,75.1667 93.5,76.5C 93.811,77.4778 94.4777,78.1445 95.5,78.5C 96.4967,71.8665 96.83,65.1998 96.5,58.5C 97.8333,58.5 99.1667,58.5 100.5,58.5C 100.5,66.5 100.5,74.5 100.5,82.5C 98.1667,82.5 95.8333,82.5 93.5,82.5C 87.865,76.3594 82.365,70.026 77,63.5C 76.5005,69.8246 76.3338,76.1579 76.5,82.5C 74.8333,82.5 73.1667,82.5 71.5,82.5C 71.5,74.5 71.5,66.5 71.5,58.5 Z"/></g>
<g><path style="opacity:1" fill="#709287" d="M 96.5,58.5 C 96.83,65.1998 96.4967,71.8665 95.5,78.5C 94.4777,78.1445 93.811,77.4778 93.5,76.5C 95.1474,70.7355 96.1474,64.7355 96.5,58.5 Z"/></g>
<g><path style="opacity:1" fill="#2a6151" d="M 190.5,75.5 C 191.919,76.4511 193.585,76.7845 195.5,76.5C 194.391,77.29 193.058,77.79 191.5,78C 197.859,78.8306 204.193,78.6639 210.5,77.5C 210.376,76.8933 210.043,76.56 209.5,76.5C 209.5,76.1667 209.5,75.8333 209.5,75.5C 209.813,72.7531 209.48,70.0865 208.5,67.5C 207.817,67.1373 207.15,66.8039 206.5,66.5C 204.156,66.0603 202.156,65.0603 200.5,63.5C 211.439,63.1104 215.106,68.1104 211.5,78.5C 199.785,79.2165 188.119,79.3831 176.5,79C 174.66,76.1737 173.994,73.0071 174.5,69.5C 172.533,69.2606 170.699,69.5939 169,70.5C 168.501,74.8206 168.334,79.1539 168.5,83.5C 163.954,85.0775 159.621,84.7442 155.5,82.5C 153.985,80.4966 153.319,78.1632 153.5,75.5C 153.556,73.3603 154.223,71.6936 155.5,70.5C 153.936,78.8458 157.27,82.5124 165.5,81.5C 166.283,77.3066 166.949,72.9732 167.5,68.5C 167.5,67.8333 167.833,67.5 168.5,67.5C 171.5,67.5 174.5,67.5 177.5,67.5C 177.5,70.5 177.5,73.5 177.5,76.5C 180.713,76.81 183.713,76.4767 186.5,75.5C 186.833,75.5 187.167,75.5 187.5,75.5C 188.328,69.3466 188.828,63.0133 189,56.5C 189.172,63.0133 189.672,69.3466 190.5,75.5 Z"/></g>
<g><path style="opacity:1" fill="#94aba4" d="M 205.5,69.5 C 206.461,71.2646 206.795,73.2646 206.5,75.5C 207.5,75.5 208.5,75.5 209.5,75.5C 209.5,75.8333 209.5,76.1667 209.5,76.5C 208.167,76.5 206.833,76.5 205.5,76.5C 205.5,74.1667 205.5,71.8333 205.5,69.5 Z"/></g>
<g><path style="opacity:1" fill="#d6dfdc" d="M 155.5,70.5 C 157.22,72.6581 158.053,75.3248 158,78.5C 160.007,79.6687 162.173,80.3354 164.5,80.5C 164.187,76.9581 164.521,73.6248 165.5,70.5C 165.5,74.1667 165.5,77.8333 165.5,81.5C 157.27,82.5124 153.936,78.8458 155.5,70.5 Z"/></g>
<g><path style="opacity:1" fill="#d6e0dd" d="M 203.5,67.5 C 204.209,66.596 205.209,66.2627 206.5,66.5C 207.15,66.8039 207.817,67.1373 208.5,67.5C 209.48,70.0865 209.813,72.7531 209.5,75.5C 208.5,75.5 207.5,75.5 206.5,75.5C 206.795,73.2646 206.461,71.2646 205.5,69.5C 205.167,68.5 204.5,67.8333 203.5,67.5 Z"/></g>
<g><path style="opacity:1" fill="#809c92" d="M 200.5,63.5 C 202.156,65.0603 204.156,66.0603 206.5,66.5C 205.209,66.2627 204.209,66.596 203.5,67.5C 201.5,67.5 199.5,67.5 197.5,67.5C 198.659,66.2597 199.659,64.9264 200.5,63.5 Z"/></g>
<g><path style="opacity:1" fill="#175443" d="M 197.5,67.5 C 199.5,67.5 201.5,67.5 203.5,67.5C 204.5,67.8333 205.167,68.5 205.5,69.5C 205.5,71.8333 205.5,74.1667 205.5,76.5C 206.833,76.5 208.167,76.5 209.5,76.5C 210.043,76.56 210.376,76.8933 210.5,77.5C 204.193,78.6639 197.859,78.8306 191.5,78C 193.058,77.79 194.391,77.29 195.5,76.5C 195.5,73.8333 195.5,71.1667 195.5,68.5C 196.167,68.1667 196.833,67.8333 197.5,67.5 Z"/></g>
<g><path style="opacity:1" fill="#d3ddda" d="M 198.5,68.5 C 200.144,68.2865 201.644,68.6198 203,69.5C 203.758,71.7695 203.591,73.9361 202.5,76C 200.888,76.7203 199.388,76.5536 198,75.5C 197.444,73.1152 197.61,70.7819 198.5,68.5 Z"/></g>
<g><path style="opacity:1" fill="#cdd9d5" d="M 38.5,77.5 C 45.1531,78.0543 51.8198,78.3877 58.5,78.5C 56.0221,79.1641 53.3555,79.4975 50.5,79.5C 46.2227,79.6633 42.2227,78.9967 38.5,77.5 Z"/></g>
<g><path style="opacity:1" fill="#437569" d="M 215.5,76.5 C 219.5,76.5 223.5,76.5 227.5,76.5C 224.023,77.3227 220.356,77.8227 216.5,78C 221.155,78.4992 225.821,78.6658 230.5,78.5C 225.695,79.4872 220.695,79.8205 215.5,79.5C 215.5,78.5 215.5,77.5 215.5,76.5 Z"/></g>
<g><path style="opacity:1" fill="#507c6f" d="M 37.5,81.5 C 45.1322,82.3577 52.7989,82.6911 60.5,82.5C 55.6946,83.4872 50.6946,83.8205 45.5,83.5C 42.5049,83.7062 39.8383,83.0395 37.5,81.5 Z"/></g>
<g><path style="opacity:1" fill="#608579" d="M 108.5,58.5 C 108.5,66.5 108.5,74.5 108.5,82.5C 116.167,82.5 123.833,82.5 131.5,82.5C 123.684,83.4924 115.684,83.8257 107.5,83.5C 107.174,74.9832 107.507,66.6499 108.5,58.5 Z"/></g>
<g><path style="opacity:1" fill="#cdd8d5" d="M 64.5,80.5 C 63.0088,83.4628 60.5088,85.1295 57,85.5C 53.015,84.9279 49.1817,84.2612 45.5,83.5C 50.6946,83.8205 55.6946,83.4872 60.5,82.5C 61.8333,81.8333 63.1667,81.1667 64.5,80.5 Z"/></g>
<g><path style="opacity:1" fill="#dae2df" d="M 155.5,82.5 C 159.621,84.7442 163.954,85.0775 168.5,83.5C 168.179,85.0481 167.179,85.7148 165.5,85.5C 165.5,87.5 165.5,89.5 165.5,91.5C 162.542,90.4589 159.542,90.4589 156.5,91.5C 156.632,88.4299 156.299,85.4299 155.5,82.5 Z"/></g>
<g><path style="opacity:1" fill="#5e877b" d="M 157.5,86.5 C 158.5,86.5 159.5,86.5 160.5,86.5C 160.5,87.5 160.5,88.5 160.5,89.5C 159.5,89.5 158.5,89.5 157.5,89.5C 157.5,88.5 157.5,87.5 157.5,86.5 Z"/></g>
<g><path style="opacity:1" fill="#325840" d="M 162.5,87.5 C 164.337,87.6395 164.67,88.3061 163.5,89.5C 162.702,89.0431 162.369,88.3764 162.5,87.5 Z"/></g>
</svg>
