<?xml version="1.0" encoding="UTF-8"?>
<!DOCTYPE svg PUBLIC "-//W3C//DTD SVG 1.1//EN" "http://www.w3.org/Graphics/SVG/1.1/DTD/svg11.dtd">
<svg xmlns="http://www.w3.org/2000/svg" version="1.1" width="282px" height="148px" style="shape-rendering:geometricPrecision; text-rendering:geometricPrecision; image-rendering:optimizeQuality; fill-rule:evenodd; clip-rule:evenodd" xmlns:xlink="http://www.w3.org/1999/xlink">
<g><path style="opacity:1" fill="#fdfdfe" d="M -0.5,-0.5 C 93.5,-0.5 187.5,-0.5 281.5,-0.5C 281.5,48.8333 281.5,98.1667 281.5,147.5C 187.5,147.5 93.5,147.5 -0.5,147.5C -0.5,98.1667 -0.5,48.8333 -0.5,-0.5 Z"/></g>
<g><path style="opacity:1" fill="#aabfce" d="M 56.5,58.5 C 50.1308,58.347 43.7974,58.6803 37.5,59.5C 40.8646,57.9608 44.5313,57.2942 48.5,57.5C 51.3555,57.5025 54.0221,57.8359 56.5,58.5 Z"/></g>
<g><path style="opacity:1" fill="#7d9eb4" d="M 56.5,58.5 C 61.2895,60.7373 65.6229,63.7373 69.5,67.5C 70.5827,68.365 70.7494,69.365 70,70.5C 63.7897,74.7388 57.9563,74.4055 52.5,69.5C 49.6965,68.3622 46.6965,68.1955 43.5,69C 42.944,69.3826 42.6107,69.8826 42.5,70.5C 40.5767,70.795 38.9101,71.6283 37.5,73C 34.8333,73.6667 32.1667,73.6667 29.5,73C 25.543,70.3598 25.543,67.8598 29.5,65.5C 32.5037,63.8136 35.1703,61.8136 37.5,59.5C 43.7974,58.6803 50.1308,58.347 56.5,58.5 Z"/></g>
<g><path style="opacity:1" fill="#c8cacc" d="M 221.5,58.5 C 222.209,57.596 223.209,57.2627 224.5,57.5C 224.824,64.3543 224.491,71.021 223.5,77.5C 224.123,70.7453 223.456,64.412 221.5,58.5 Z"/></g>
<g><path style="opacity:1" fill="#8c9196" d="M 96.5,57.5 C 97.5,57.5 98.5,57.5 99.5,57.5C 99.5,58.5 99.5,59.5 99.5,60.5C 98.5,60.5 97.5,60.5 96.5,60.5C 96.5,59.5 96.5,58.5 96.5,57.5 Z"/></g>
<g><path style="opacity:1" fill="#8d9297" d="M 101.5,57.5 C 102.5,57.5 103.5,57.5 104.5,57.5C 104.5,58.5 104.5,59.5 104.5,60.5C 103.5,60.5 102.5,60.5 101.5,60.5C 101.5,59.5 101.5,58.5 101.5,57.5 Z"/></g>
<g><path style="opacity:1" fill="#8c9196" d="M 165.5,58.5 C 163.541,64.7496 162.874,71.4163 163.5,78.5C 162.509,71.6866 162.175,64.6866 162.5,57.5C 163.791,57.2627 164.791,57.596 165.5,58.5 Z"/></g>
<g><path style="opacity:1" fill="#9ea3a7" d="M 226.5,57.5 C 227.833,57.5 229.167,57.5 230.5,57.5C 230.5,65.5 230.5,73.5 230.5,81.5C 229.167,81.5 227.833,81.5 226.5,81.5C 226.5,73.5 226.5,65.5 226.5,57.5 Z"/></g>
<g><path style="opacity:1" fill="#a4bbca" d="M 37.5,59.5 C 35.1703,61.8136 32.5037,63.8136 29.5,65.5C 31.3129,62.3528 33.9796,60.3528 37.5,59.5 Z"/></g>
<g><path style="opacity:1" fill="#979ca0" d="M 139.5,60.5 C 140.5,60.5 141.5,60.5 142.5,60.5C 142.5,61.5 142.5,62.5 142.5,63.5C 141.5,63.5 140.5,63.5 139.5,63.5C 139.5,62.5 139.5,61.5 139.5,60.5 Z"/></g>
<g><path style="opacity:1" fill="#e9eaeb" d="M 125.5,63.5 C 126.486,67.97 126.819,72.6367 126.5,77.5C 130.5,77.5 134.5,77.5 138.5,77.5C 134.702,78.4834 130.702,78.8168 126.5,78.5C 125.833,78.5 125.5,78.1667 125.5,77.5C 125.5,72.8333 125.5,68.1667 125.5,63.5 Z"/></g>
<g><path style="opacity:1" fill="#cdcfd1" d="M 104.5,64.5 C 101.316,65.3232 97.9828,65.9899 94.5,66.5C 94.6107,65.8826 94.944,65.3826 95.5,65C 98.4816,64.502 101.482,64.3354 104.5,64.5 Z"/></g>
<g><path style="opacity:1" fill="#a8acaf" d="M 125.5,63.5 C 125.5,68.1667 125.5,72.8333 125.5,77.5C 124.834,73.3155 124.167,68.9822 123.5,64.5C 122.833,68.9822 122.166,73.3155 121.5,77.5C 121.5,72.8333 121.5,68.1667 121.5,63.5C 122.833,63.5 124.167,63.5 125.5,63.5 Z"/></g>
<g><path style="opacity:1" fill="#626a71" d="M 227.5,58.5 C 228.822,61.7681 229.489,65.4348 229.5,69.5C 229.167,73.1667 228.833,76.8333 228.5,80.5C 227.503,73.1968 227.169,65.8635 227.5,58.5 Z"/></g>
<g><path style="opacity:1" fill="#c5d3dd" d="M 52.5,69.5 C 49.0977,69.3424 45.7644,69.6758 42.5,70.5C 42.6107,69.8826 42.944,69.3826 43.5,69C 46.6965,68.1955 49.6965,68.3622 52.5,69.5 Z"/></g>
<g><path style="opacity:1" fill="#9ba0a4" d="M 104.5,64.5 C 105.209,63.596 106.209,63.2627 107.5,63.5C 107.5,68.1667 107.5,72.8333 107.5,77.5C 107.135,72.9063 106.135,68.573 104.5,64.5 Z"/></g>
<g><path style="opacity:1" fill="#7a8086" d="M 158.5,82.5 C 158.666,78.1539 158.499,73.8206 158,69.5C 157.819,72.6946 157.319,75.6946 156.5,78.5C 154.708,79.3091 152.708,79.8091 150.5,80C 152.382,80.1981 154.048,80.6981 155.5,81.5C 149.515,82.1841 146.182,79.5174 145.5,73.5C 146.673,67.4267 150.34,65.26 156.5,67C 158.638,69.2833 159.638,72.1166 159.5,75.5C 159.497,78.0254 159.163,80.3587 158.5,82.5 Z"/></g>
<g><path style="opacity:1" fill="#d7d9da" d="M 150.5,69.5 C 150.337,71.8568 150.503,74.1902 151,76.5C 152.356,77.3802 153.856,77.7135 155.5,77.5C 155.5,74.8333 155.5,72.1667 155.5,69.5C 156.477,72.2869 156.81,75.2869 156.5,78.5C 151.578,79.762 148.911,77.9287 148.5,73C 148.387,71.3009 149.053,70.1342 150.5,69.5 Z"/></g>
<g><path style="opacity:1" fill="#f6f7f7" d="M 155.5,69.5 C 155.5,72.1667 155.5,74.8333 155.5,77.5C 153.856,77.7135 152.356,77.3802 151,76.5C 150.503,74.1902 150.337,71.8568 150.5,69.5C 152.167,68.1667 153.833,68.1667 155.5,69.5 Z"/></g>
<g><path style="opacity:1" fill="#80a0b6" d="M 21.5,75.5 C 25.5025,75.9713 28.6692,77.9713 31,81.5C 31.3333,86.1667 31.6667,90.8333 32,95.5C 35.3483,99.8471 39.3483,103.514 44,106.5C 48.2308,116.897 45.3975,119.73 35.5,115C 21.8256,105.149 17.1589,91.9828 21.5,75.5 Z"/></g>
<g><path style="opacity:1" fill="#7e9fb5" d="M 71.5,75.5 C 74.766,75.4326 76.266,77.0992 76,80.5C 78.1939,97.2902 71.6939,109.124 56.5,116C 54.8333,116.667 53.1667,116.667 51.5,116C 50.3977,113.599 50.231,111.099 51,108.5C 55.4764,103.934 60.1431,99.601 65,95.5C 65.3333,90.8333 65.6667,86.1667 66,81.5C 68.0396,79.6298 69.8729,77.6298 71.5,75.5 Z"/></g>
<g><path style="opacity:1" fill="#cfd1d3" d="M 94.5,76.5 C 97.0961,77.2653 99.7628,77.5987 102.5,77.5C 101.551,78.1524 100.385,78.4857 99,78.5C 96.9919,78.6932 95.4919,78.0265 94.5,76.5 Z"/></g>
<g><path style="opacity:1" fill="#6f757b" d="M 104.5,64.5 C 106.135,68.573 107.135,72.9063 107.5,77.5C 112.167,78.8333 116.833,78.8333 121.5,77.5C 122.166,73.3155 122.833,68.9822 123.5,64.5C 124.167,68.9822 124.834,73.3155 125.5,77.5C 125.5,78.1667 125.833,78.5 126.5,78.5C 128.473,79.1627 130.639,79.4961 133,79.5C 135.61,79.4668 137.777,78.8001 139.5,77.5C 139.5,73.8333 139.5,70.1667 139.5,66.5C 140.5,66.5 141.5,66.5 142.5,66.5C 142.666,70.5138 142.499,74.5138 142,78.5C 141.167,79.3333 140.333,80.1667 139.5,81C 134.511,81.4993 129.511,81.6659 124.5,81.5C 118.749,81.3855 112.749,81.3855 106.5,81.5C 105.732,80.7375 105.232,79.7375 105,78.5C 104.329,77.7476 103.496,77.4142 102.5,77.5C 99.7628,77.5987 97.0961,77.2653 94.5,76.5C 91.8996,73.0535 91.8996,69.7201 94.5,66.5C 97.9828,65.9899 101.316,65.3232 104.5,64.5 Z"/></g>
<g><path style="opacity:1" fill="#848a8e" d="M 138.5,77.5 C 138.833,77.5 139.167,77.5 139.5,77.5C 137.777,78.8001 135.61,79.4668 133,79.5C 130.639,79.4961 128.473,79.1627 126.5,78.5C 130.702,78.8168 134.702,78.4834 138.5,77.5 Z"/></g>
<g><path style="opacity:1" fill="#d9dbdc" d="M 96.5,68.5 C 99.0593,68.1984 101.393,68.5318 103.5,69.5C 101.167,69.5 98.8333,69.5 96.5,69.5C 96.5,70.8333 96.5,72.1667 96.5,73.5C 98.8333,73.5 101.167,73.5 103.5,73.5C 101.052,74.4731 98.3854,74.8064 95.5,74.5C 95.2053,72.2646 95.5386,70.2646 96.5,68.5 Z"/></g>
<g><path style="opacity:1" fill="#fcfcfc" d="M 103.5,69.5 C 103.5,70.8333 103.5,72.1667 103.5,73.5C 101.167,73.5 98.8333,73.5 96.5,73.5C 96.5,72.1667 96.5,70.8333 96.5,69.5C 98.8333,69.5 101.167,69.5 103.5,69.5 Z"/></g>
<g><path style="opacity:1" fill="#a3a7ab" d="M 96.5,68.5 C 98.9479,67.5269 101.615,67.1936 104.5,67.5C 104.795,69.7354 104.461,71.7354 103.5,73.5C 103.5,72.1667 103.5,70.8333 103.5,69.5C 101.393,68.5318 99.0593,68.1984 96.5,68.5 Z"/></g>
<g><path style="opacity:1" fill="#686f76" d="M 158.5,82.5 C 156.607,86.7882 153.273,89.1216 148.5,89.5C 149.289,86.5657 151.289,84.7324 154.5,84C 155.252,83.3292 155.586,82.4959 155.5,81.5C 154.048,80.6981 152.382,80.1981 150.5,80C 152.708,79.8091 154.708,79.3091 156.5,78.5C 157.319,75.6946 157.819,72.6946 158,69.5C 158.499,73.8206 158.666,78.1539 158.5,82.5 Z"/></g>
<g><path style="opacity:1" fill="#71787d" d="M 165.5,58.5 C 165.177,65.0221 165.51,71.3554 166.5,77.5C 171.305,78.4872 176.305,78.8205 181.5,78.5C 182.779,77.032 184.446,76.3653 186.5,76.5C 186.5,77.5 186.5,78.5 186.5,79.5C 191.695,79.8205 196.695,79.4872 201.5,78.5C 201.5,78.1667 201.5,77.8333 201.5,77.5C 202.482,74.0381 202.815,70.3714 202.5,66.5C 203.833,66.5 205.167,66.5 206.5,66.5C 206.183,70.7016 206.517,74.7016 207.5,78.5C 209.473,79.1627 211.639,79.4961 214,79.5C 216.61,79.4668 218.777,78.8001 220.5,77.5C 220.177,70.9779 220.51,64.6446 221.5,58.5C 223.456,64.412 224.123,70.7453 223.5,77.5C 222.71,78.7942 221.71,79.9609 220.5,81C 214.357,81.3432 208.357,81.5099 202.5,81.5C 195.789,81.713 189.123,81.3796 182.5,80.5C 176.108,80.7513 169.775,80.418 163.5,79.5C 163.5,79.1667 163.5,78.8333 163.5,78.5C 162.874,71.4163 163.541,64.7496 165.5,58.5 Z"/></g>
<g><path style="opacity:1" fill="#888d91" d="M 220.5,77.5 C 218.777,78.8001 216.61,79.4668 214,79.5C 211.639,79.4961 209.473,79.1627 207.5,78.5C 211.931,78.7693 216.265,78.436 220.5,77.5 Z"/></g>
<g><path style="opacity:1" fill="#dbddde" d="M 188.5,76.5 C 192.634,77.4849 196.968,77.8182 201.5,77.5C 201.5,77.8333 201.5,78.1667 201.5,78.5C 196.786,78.8266 192.12,78.4933 187.5,77.5C 187.624,76.8933 187.957,76.56 188.5,76.5 Z"/></g>
<g><path style="opacity:1" fill="#d0d2d4" d="M 179.5,76.5 C 180.833,76.5 181.5,77.1667 181.5,78.5C 176.305,78.8205 171.305,78.4872 166.5,77.5C 171.032,77.8182 175.366,77.4849 179.5,76.5 Z"/></g>
<g><path style="opacity:1" fill="#777e83" d="M 186.5,66.5 C 189.168,66.8337 191.168,68.1671 192.5,70.5C 190.722,72.264 189.389,74.264 188.5,76.5C 187.957,76.56 187.624,76.8933 187.5,77.5C 192.12,78.4933 196.786,78.8266 201.5,78.5C 196.695,79.4872 191.695,79.8205 186.5,79.5C 186.5,78.5 186.5,77.5 186.5,76.5C 184.446,76.3653 182.779,77.032 181.5,78.5C 181.5,77.1667 180.833,76.5 179.5,76.5C 178.878,75.3734 178.045,74.3734 177,73.5C 176.22,71.6131 176.387,69.9464 177.5,68.5C 178.167,69.8333 178.833,71.1667 179.5,72.5C 183.217,76.7667 186.217,76.2667 188.5,71C 188.355,70.228 188.022,69.5613 187.5,69C 185.19,68.5034 182.857,68.3367 180.5,68.5C 179.262,68.19 179.262,67.69 180.5,67C 182.473,66.5045 184.473,66.3379 186.5,66.5 Z"/></g>
<g><path style="opacity:1" fill="#ededee" d="M 180.5,68.5 C 182.857,68.3367 185.19,68.5034 187.5,69C 188.022,69.5613 188.355,70.228 188.5,71C 186.217,76.2667 183.217,76.7667 179.5,72.5C 179.433,71.0413 179.766,69.7079 180.5,68.5 Z"/></g>
<g><path style="opacity:1" fill="#979ca0" d="M 186.5,66.5 C 184.473,66.3379 182.473,66.5045 180.5,67C 179.262,67.69 179.262,68.19 180.5,68.5C 179.766,69.7079 179.433,71.0413 179.5,72.5C 178.833,71.1667 178.167,69.8333 177.5,68.5C 177.953,67.5416 178.619,66.7083 179.5,66C 182.039,65.2042 184.372,65.3709 186.5,66.5 Z"/></g>
<g><path style="opacity:1" fill="#91969a" d="M 205.5,60.5 C 206.5,60.5 207.5,60.5 208.5,60.5C 208.5,61.5 208.5,62.5 208.5,63.5C 207.5,63.5 206.5,63.5 205.5,63.5C 205.5,62.5 205.5,61.5 205.5,60.5 Z"/></g>
<g><path style="opacity:1" fill="#9fa3a7" d="M 200.5,59.5 C 201.5,59.5 202.5,59.5 203.5,59.5C 203.5,60.8333 203.5,62.1667 203.5,63.5C 202.5,63.5 201.5,63.5 200.5,63.5C 200.5,62.1667 200.5,60.8333 200.5,59.5 Z"/></g>
<g><path style="opacity:1" fill="#858b90" d="M 163.5,79.5 C 169.775,80.418 176.108,80.7513 182.5,80.5C 177.025,81.4889 171.358,81.8222 165.5,81.5C 164.5,81.1667 163.833,80.5 163.5,79.5 Z"/></g>
<g><path style="opacity:1" fill="#dddee0" d="M 124.5,81.5 C 118.401,82.8057 112.401,82.8057 106.5,81.5C 112.749,81.3855 118.749,81.3855 124.5,81.5 Z"/></g>
<g><path style="opacity:1" fill="#dcdedf" d="M 182.5,80.5 C 189.123,81.3796 195.789,81.713 202.5,81.5C 190.167,82.8333 177.833,82.8333 165.5,81.5C 171.358,81.8222 177.025,81.4889 182.5,80.5 Z"/></g>
<g><path style="opacity:1" fill="#82898d" d="M 119.5,84.5 C 120.5,84.5 121.5,84.5 122.5,84.5C 121.754,88.31 120.754,88.31 119.5,84.5 Z"/></g>
<g><path style="opacity:1" fill="#999da1" d="M 124.5,84.5 C 125.5,84.5 126.5,84.5 127.5,84.5C 127.5,85.5 127.5,86.5 127.5,87.5C 126.5,87.5 125.5,87.5 124.5,87.5C 124.5,86.5 124.5,85.5 124.5,84.5 Z"/></g>
<g><path style="opacity:1" fill="#cbccce" d="M 112.5,93.5 C 105.646,93.176 98.979,93.5093 92.5,94.5C 95.1667,95.1667 97.8333,95.8333 100.5,96.5C 97.5,96.5 94.5,96.5 91.5,96.5C 91.5,95.1667 91.5,93.8333 91.5,92.5C 98.6866,92.1755 105.687,92.5088 112.5,93.5 Z"/></g>
<g><path style="opacity:1" fill="#80868b" d="M 92.5,94.5 C 98.979,93.5093 105.646,93.176 112.5,93.5C 112.5,94.1667 112.5,94.8333 112.5,95.5C 112.167,95.5 111.833,95.5 111.5,95.5C 105.355,94.5098 99.0221,94.1765 92.5,94.5 Z"/></g>
<g><path style="opacity:1" fill="#62696f" d="M 92.5,94.5 C 99.0221,94.1765 105.355,94.5098 111.5,95.5C 108.833,95.5 106.167,95.5 103.5,95.5C 103.83,102.532 103.497,109.532 102.5,116.5C 101.833,109.679 101.167,103.012 100.5,96.5C 97.8333,95.8333 95.1667,95.1667 92.5,94.5 Z"/></g>
<g><path style="opacity:1" fill="#92979c" d="M 192.5,93.5 C 193.5,93.5 194.5,93.5 195.5,93.5C 195.5,94.5 195.5,95.5 195.5,96.5C 194.5,96.5 193.5,96.5 192.5,96.5C 192.5,95.5 192.5,94.5 192.5,93.5 Z"/></g>
<g><path style="opacity:1" fill="#a6aaad" d="M 111.5,95.5 C 111.833,95.5 112.167,95.5 112.5,95.5C 110.052,96.4731 107.385,96.8064 104.5,96.5C 104.5,103.5 104.5,110.5 104.5,117.5C 103.167,117.5 101.833,117.5 100.5,117.5C 100.5,110.5 100.5,103.5 100.5,96.5C 101.167,103.012 101.833,109.679 102.5,116.5C 103.497,109.532 103.83,102.532 103.5,95.5C 106.167,95.5 108.833,95.5 111.5,95.5 Z"/></g>
<g><path style="opacity:1" fill="#999ea1" d="M 174.5,99.5 C 173.883,105.598 174.55,111.265 176.5,116.5C 176.5,116.833 176.5,117.167 176.5,117.5C 175.5,117.5 174.5,117.5 173.5,117.5C 173.177,111.31 173.51,105.31 174.5,99.5 Z"/></g>
<g><path style="opacity:1" fill="#656c73" d="M 192.5,99.5 C 193.167,99.5 193.833,99.5 194.5,99.5C 195.117,105.598 194.45,111.265 192.5,116.5C 192.5,110.833 192.5,105.167 192.5,99.5 Z"/></g>
<g><path style="opacity:1" fill="#898f93" d="M 194.5,99.5 C 195.49,105.31 195.823,111.31 195.5,117.5C 194.209,117.737 193.209,117.404 192.5,116.5C 194.45,111.265 195.117,105.598 194.5,99.5 Z"/></g>
<g><path style="opacity:1" fill="#e1e2e3" d="M 192.5,99.5 C 195.167,98.1667 197.833,98.1667 200.5,99.5C 199.167,99.5 198.5,100.167 198.5,101.5C 197.883,101.389 197.383,101.056 197,100.5C 196.827,106.348 196.327,112.015 195.5,117.5C 195.823,111.31 195.49,105.31 194.5,99.5C 193.833,99.5 193.167,99.5 192.5,99.5 Z"/></g>
<g><path style="opacity:1" fill="#e7e8e9" d="M 110.5,101.5 C 111.36,103.97 112.694,104.137 114.5,102C 119.199,100.287 121.532,101.787 121.5,106.5C 118.5,106.5 115.5,106.5 112.5,106.5C 111.544,105.341 110.544,104.174 109.5,103C 109.57,102.235 109.903,101.735 110.5,101.5 Z"/></g>
<g><path style="opacity:1" fill="#e7e8e9" d="M 212.5,99.5 C 214.347,98.4271 216.347,98.4271 218.5,99.5C 217.859,100.482 217.193,101.482 216.5,102.5C 217,102.833 217.5,103.167 218,103.5C 220.267,101.742 222.767,101.242 225.5,102C 226.38,103.356 226.714,104.856 226.5,106.5C 223.833,106.5 221.167,106.5 218.5,106.5C 217.101,105.11 215.434,104.11 213.5,103.5C 213.539,102.417 213.873,101.417 214.5,100.5C 214.043,99.7025 213.376,99.3691 212.5,99.5 Z"/></g>
<g><path style="opacity:1" fill="#909599" d="M 123.5,101.5 C 124.488,106.64 124.821,111.974 124.5,117.5C 123.209,117.737 122.209,117.404 121.5,116.5C 123.442,111.944 124.108,106.944 123.5,101.5 Z"/></g>
<g><path style="opacity:1" fill="#71777d" d="M 229.5,101.5 C 229.5,106.5 229.5,111.5 229.5,116.5C 227.585,116.216 225.919,116.549 224.5,117.5C 222.5,117.5 220.5,117.5 218.5,117.5C 216.016,115.455 215.016,112.788 215.5,109.5C 216.167,108.167 217.167,107.167 218.5,106.5C 221.167,106.5 223.833,106.5 226.5,106.5C 226.714,104.856 226.38,103.356 225.5,102C 222.767,101.242 220.267,101.742 218,103.5C 217.5,103.167 217,102.833 216.5,102.5C 217.193,101.482 217.859,100.482 218.5,99.5C 222.572,97.901 226.239,98.5677 229.5,101.5 Z"/></g>
<g><path style="opacity:1" fill="#aaaeb0" d="M 229.5,101.5 C 230.488,106.64 230.821,111.974 230.5,117.5C 228.5,117.5 226.5,117.5 224.5,117.5C 225.919,116.549 227.585,116.216 229.5,116.5C 229.5,111.5 229.5,106.5 229.5,101.5 Z"/></g>
<g><path style="opacity:1" fill="#e1e2e3" d="M 128.5,99.5 C 127.325,99.281 126.325,99.6143 125.5,100.5C 126.246,101.736 126.579,103.07 126.5,104.5C 125.833,108.833 125.167,113.167 124.5,117.5C 124.821,111.974 124.488,106.64 123.5,101.5C 122.5,101.167 121.833,100.5 121.5,99.5C 123.755,99.2452 126.088,99.2452 128.5,99.5 Z"/></g>
<g><path style="opacity:1" fill="#d3d6d7" d="M 153.5,101.5 C 153.834,104.491 152.834,106.824 150.5,108.5C 150.935,105.843 151.935,103.509 153.5,101.5 Z"/></g>
<g><path style="opacity:1" fill="#6b7278" d="M 188.5,102.5 C 188.666,107.179 188.499,111.845 188,116.5C 187.823,112.644 187.323,108.977 186.5,105.5C 186.573,103.973 185.906,102.973 184.5,102.5C 181.857,101.021 179.357,101.354 177,103.5C 176.501,107.821 176.334,112.154 176.5,116.5C 174.55,111.265 173.883,105.598 174.5,99.5C 177.841,98.9947 181.174,98.8281 184.5,99C 186.324,99.66 187.657,100.827 188.5,102.5 Z"/></g>
<g><path style="opacity:1" fill="#a2a6aa" d="M 170.5,99.5 C 171.49,105.31 171.823,111.31 171.5,117.5C 169.833,117.5 168.167,117.5 166.5,117.5C 167.568,116.566 168.901,116.232 170.5,116.5C 170.5,110.833 170.5,105.167 170.5,99.5 Z"/></g>
<g><path style="opacity:1" fill="#bfc2c4" d="M 184.5,102.5 C 181.956,102.104 179.789,102.771 178,104.5C 177.825,109.019 177.325,113.353 176.5,117.5C 176.5,117.167 176.5,116.833 176.5,116.5C 176.334,112.154 176.501,107.821 177,103.5C 179.357,101.354 181.857,101.021 184.5,102.5 Z"/></g>
<g><path style="opacity:1" fill="#ced0d2" d="M 213.5,103.5 C 213.834,106.491 212.834,108.824 210.5,110.5C 210.935,107.843 211.935,105.509 213.5,103.5 Z"/></g>
<g><path style="opacity:1" fill="#dfe0e1" d="M 150.5,99.5 C 153.167,98.1667 155.833,98.1667 158.5,99.5C 157.5,99.5 156.5,99.5 155.5,99.5C 155.5,104.167 155.5,108.833 155.5,113.5C 154.833,109.5 154.167,105.5 153.5,101.5C 153.179,99.9519 152.179,99.2852 150.5,99.5 Z"/></g>
<g><path style="opacity:1" fill="#82898d" d="M 188.5,102.5 C 189.487,107.305 189.821,112.305 189.5,117.5C 188.5,117.5 187.5,117.5 186.5,117.5C 186.5,113.5 186.5,109.5 186.5,105.5C 187.323,108.977 187.823,112.644 188,116.5C 188.499,111.845 188.666,107.179 188.5,102.5 Z"/></g>
<g><path style="opacity:1" fill="#9fa4a8" d="M 226.5,113.5 C 226.5,112.167 226.5,110.833 226.5,109.5C 223.763,109.401 221.096,109.735 218.5,110.5C 218.611,109.883 218.944,109.383 219.5,109C 222.146,108.503 224.813,108.336 227.5,108.5C 227.784,110.415 227.451,112.081 226.5,113.5 Z"/></g>
<g><path style="opacity:1" fill="#cacdcf" d="M 127.5,107.5 C 129.4,110.518 130.733,113.851 131.5,117.5C 129.103,114.691 127.77,111.358 127.5,107.5 Z"/></g>
<g><path style="opacity:1" fill="#f3f4f4" d="M 226.5,113.5 C 224.052,114.473 221.385,114.806 218.5,114.5C 218.5,113.167 218.5,111.833 218.5,110.5C 221.096,109.735 223.763,109.401 226.5,109.5C 226.5,110.833 226.5,112.167 226.5,113.5 Z"/></g>
<g><path style="opacity:1" fill="#6f757b" d="M 200.5,99.5 C 202.466,103.68 204.299,108.013 206,112.5C 207.706,107.844 209.873,103.51 212.5,99.5C 213.376,99.3691 214.043,99.7025 214.5,100.5C 213.873,101.417 213.539,102.417 213.5,103.5C 211.935,105.509 210.935,107.843 210.5,110.5C 208.719,114.338 207.219,118.338 206,122.5C 204.491,124.919 202.325,125.919 199.5,125.5C 199.5,124.5 199.5,123.5 199.5,122.5C 202.535,121.822 204.201,119.822 204.5,116.5C 202.764,111.367 200.764,106.367 198.5,101.5C 198.5,100.167 199.167,99.5 200.5,99.5 Z"/></g>
<g><path style="opacity:1" fill="#70777d" d="M 128.5,99.5 C 129.431,103.29 130.764,106.956 132.5,110.5C 134.294,107.281 135.794,103.948 137,100.5C 138.494,99.2528 139.994,99.2528 141.5,100.5C 143.098,104.126 144.598,107.793 146,111.5C 147.238,107.365 148.738,103.365 150.5,99.5C 152.179,99.2852 153.179,99.9519 153.5,101.5C 151.935,103.509 150.935,105.843 150.5,108.5C 149.774,111.179 148.941,113.846 148,116.5C 146.989,117.337 145.822,117.67 144.5,117.5C 144.02,114.557 143.02,111.89 141.5,109.5C 141.229,107.688 140.562,106.022 139.5,104.5C 137.392,107.157 136.059,110.157 135.5,113.5C 134.766,114.708 134.433,116.041 134.5,117.5C 133.5,117.5 132.5,117.5 131.5,117.5C 130.733,113.851 129.4,110.518 127.5,107.5C 127.443,106.391 127.11,105.391 126.5,104.5C 126.579,103.07 126.246,101.736 125.5,100.5C 126.325,99.6143 127.325,99.281 128.5,99.5 Z"/></g>
<g><path style="opacity:1" fill="#d0d2d4" d="M 141.5,109.5 C 140.85,109.196 140.183,108.863 139.5,108.5C 138.388,110.419 137.054,112.086 135.5,113.5C 136.059,110.157 137.392,107.157 139.5,104.5C 140.562,106.022 141.229,107.688 141.5,109.5 Z"/></g>
<g><path style="opacity:1" fill="#cfd1d2" d="M 215.5,109.5 C 215.016,112.788 216.016,115.455 218.5,117.5C 216.983,117.489 215.816,116.823 215,115.5C 214.211,113.288 214.378,111.288 215.5,109.5 Z"/></g>
<g><path style="opacity:1" fill="#71777d" d="M 121.5,99.5 C 121.833,100.5 122.5,101.167 123.5,101.5C 124.108,106.944 123.442,111.944 121.5,116.5C 117.135,118.379 113.302,117.712 110,114.5C 109.018,111.225 109.851,108.559 112.5,106.5C 115.5,106.5 118.5,106.5 121.5,106.5C 121.532,101.787 119.199,100.287 114.5,102C 112.694,104.137 111.36,103.97 110.5,101.5C 113.636,98.365 117.303,97.6983 121.5,99.5 Z"/></g>
<g><path style="opacity:1" fill="#b8bbbe" d="M 114.5,109.5 C 116.607,108.532 118.941,108.198 121.5,108.5C 121.784,110.415 121.451,112.081 120.5,113.5C 120.5,112.167 120.5,110.833 120.5,109.5C 118.5,109.5 116.5,109.5 114.5,109.5 Z"/></g>
<g><path style="opacity:1" fill="#f2f3f3" d="M 114.5,109.5 C 116.5,109.5 118.5,109.5 120.5,109.5C 120.5,110.833 120.5,112.167 120.5,113.5C 118.372,114.629 116.039,114.796 113.5,114C 112.084,112.085 112.418,110.585 114.5,109.5 Z"/></g>
<g><path style="opacity:1" fill="#6d747a" d="M 158.5,99.5 C 158.334,104.179 158.501,108.845 159,113.5C 159.671,114.252 160.504,114.586 161.5,114.5C 164.044,114.896 166.211,114.229 168,112.5C 167.892,107.72 168.725,103.386 170.5,99.5C 170.5,105.167 170.5,110.833 170.5,116.5C 168.901,116.232 167.568,116.566 166.5,117.5C 163.813,117.664 161.146,117.497 158.5,117C 157.364,115.855 156.364,114.688 155.5,113.5C 155.5,108.833 155.5,104.167 155.5,99.5C 156.5,99.5 157.5,99.5 158.5,99.5 Z"/></g>
<g><path style="opacity:1" fill="#d3d5d7" d="M 158.5,99.5 C 159.325,103.647 159.825,107.981 160,112.5C 160.717,113.044 161.217,113.711 161.5,114.5C 160.504,114.586 159.671,114.252 159,113.5C 158.501,108.845 158.334,104.179 158.5,99.5 Z"/></g>
</svg>
